# Exported from Wings 3D 1.4.1
mtllib SpaceShip1.mtl
o body
#36 vertices, 32 faces
v 1.69389251 -0.79668800 0.0000000e+0
v 1.69389251 -0.39834400 0.68995205
v 1.69389251 0.39834400 0.68995205
v 1.69389251 0.79668800 9.7566141e-17
v 1.69389251 0.39834400 -0.68995205
v 1.69389251 -0.39834400 -0.68995205
v -1.24614248 -0.79668800 0.0000000e+0
v -1.24614248 -0.39834400 0.68995205
v -1.24614248 0.39834400 0.68995205
v -1.24614248 0.79668800 9.7566141e-17
v -1.24614248 0.39834400 -0.68995205
v -1.24614248 -0.39834400 -0.68995205
v -1.66858411 -0.47482605 5.9556425e-18
v -1.66858411 -0.23741302 0.41121142
v -1.66858411 0.23741302 0.41121142
v -1.66858411 0.47482605 6.4105062e-17
v -1.66858411 0.23741302 -0.41121142
v -1.66858411 -0.23741302 -0.41121142
v -1.79562360 -0.24501024 -3.5814443e-18
v -1.79562360 -0.12250512 0.21218509
v -1.79562360 0.12250512 0.21218509
v -1.79562360 0.24501024 2.6423656e-17
v -1.79562360 0.12250512 -0.21218509
v -1.79562360 -0.12250512 -0.21218509
v 2.33947968 -0.30760124 0.53278097
v 2.33947968 -0.61520247 -2.5797956e-18
v 2.33947968 -0.30760124 -0.53278097
v 2.33947968 0.30760124 -0.53278097
v 2.33947968 0.61520247 7.2760778e-17
v 2.33947968 0.30760124 0.53278097
v 2.86214634 -0.11381246 0.19712896
v 2.86214634 -0.22762491 1.0702817e-17
v 2.86214634 -0.11381246 -0.19712896
v 2.86214634 0.11381246 -0.19712896
v 2.86214634 0.22762491 3.8578830e-17
v 2.86214634 0.11381246 0.19712896
vn 0.13722475 -0.99053994 0.0000000e+0
vn 0.13722475 -0.49526997 0.85783275
vn 0.13722475 0.49526997 0.85783275
vn 0.13722475 0.99053994 6.4406289e-17
vn 0.13722475 0.49526997 -0.85783275
vn 0.13722475 -0.49526997 -0.85783275
vn -0.32750872 -0.94484816 0.0000000e+0
vn -0.32750872 -0.47242408 0.81826251
vn -0.32750872 0.47242408 0.81826251
vn -0.32750872 0.94484816 8.2526378e-17
vn -0.32750872 0.47242408 -0.81826251
vn -0.32750872 -0.47242408 -0.81826251
vn -0.76080939 -0.64897540 0.0000000e+0
vn -0.76080939 -0.32448770 0.56202919
vn -0.76080939 0.32448770 0.56202919
vn -0.76080939 0.64897540 4.5455790e-17
vn -0.76080939 0.32448770 -0.56202919
vn -0.76080939 -0.32448770 -0.56202919
vn -0.94474677 -0.32780108 0.0000000e+0
vn -0.94474677 -0.16390054 0.28388406
vn -0.94474677 0.16390054 0.28388406
vn -0.94474677 0.32780108 0.0000000e+0
vn -0.94474677 0.16390054 -0.28388406
vn -0.94474677 -0.16390054 -0.28388406
vn 0.44347933 -0.44814230 0.77620523
vn 0.44347933 -0.89628460 -3.1687274e-17
vn 0.44347933 -0.44814230 -0.77620523
vn 0.44347933 0.44814230 -0.77620523
vn 0.44347933 0.89628460 6.3374548e-17
vn 0.44347933 0.44814230 0.77620523
vn 0.81906554 -0.28684998 0.49683874
vn 0.81906554 -0.57369996 -4.3703354e-17
vn 0.81906554 -0.28684998 -0.49683874
vn 0.81906554 0.28684998 -0.49683874
vn 0.81906554 0.57369996 4.3703354e-17
vn 0.81906554 0.28684998 0.49683874
g body_default2
usemtl default2
s 1
f 1//1 7//7 12//12 6//6
f 1//1 26//26 25//25 2//2
f 2//2 8//8 7//7 1//1
f 2//2 25//25 30//30 3//3
f 3//3 9//9 8//8 2//2
f 3//3 30//30 29//29 4//4
f 4//4 10//10 9//9 3//3
f 4//4 29//29 28//28 5//5
f 5//5 11//11 10//10 4//4
f 5//5 28//28 27//27 6//6
f 6//6 12//12 11//11 5//5
f 6//6 27//27 26//26 1//1
f 7//7 13//13 18//18 12//12
f 8//8 14//14 13//13 7//7
f 9//9 15//15 14//14 8//8
f 10//10 16//16 15//15 9//9
f 11//11 17//17 16//16 10//10
f 12//12 18//18 17//17 11//11
f 13//13 19//19 24//24 18//18
f 14//14 20//20 19//19 13//13
f 15//15 21//21 20//20 14//14
f 16//16 22//22 21//21 15//15
f 17//17 23//23 22//22 16//16
f 18//18 24//24 23//23 17//17
f 20//20 21//21 22//22 23//23 24//24 19//19
f 25//25 31//31 36//36 30//30
f 26//26 32//32 31//31 25//25
f 27//27 33//33 32//32 26//26
f 28//28 34//34 33//33 27//27
f 29//29 35//35 34//34 28//28
f 30//30 36//36 35//35 29//29
f 32//32 33//33 34//34 35//35 36//36 31//31
o cube9
#8 vertices, 6 faces
v -0.77500241 -7.4226956e-3 -0.89523896
v -0.77500241 7.4226956e-3 -0.89523896
v 0.46211352 7.4226956e-3 -0.89523896
v 0.46211352 -7.4226956e-3 -0.89523896
v -0.77500241 -7.4226956e-3 -3.33483158
v -0.77500241 7.4226956e-3 -3.33483158
v 0.46211352 7.4226956e-3 -3.33483158
v 0.46211352 -7.4226956e-3 -3.33483158
vn -0.57735027 -0.57735027 0.57735027
vn -0.57735027 0.57735027 0.57735027
vn 0.57735027 0.57735027 0.57735027
vn 0.57735027 -0.57735027 0.57735027
vn -0.57735027 -0.57735027 -0.57735027
vn -0.57735027 0.57735027 -0.57735027
vn 0.57735027 0.57735027 -0.57735027
vn 0.57735027 -0.57735027 -0.57735027
g cube9_default2
usemtl default2
s 1
f 37//37 40//40 39//39 38//38
f 37//37 41//41 44//44 40//40
f 38//38 42//42 41//41 37//37
f 39//39 43//43 42//42 38//38
f 40//40 44//44 43//43 39//39
f 42//42 43//43 44//44 41//41
o cube9_copy10
#8 vertices, 6 faces
v -0.77500241 -7.4226956e-3 3.33292281
v -0.77500241 7.4226956e-3 3.33292281
v 0.46211352 7.4226956e-3 3.33292281
v 0.46211352 -7.4226956e-3 3.33292281
v -0.77500241 -7.4226956e-3 0.89333018
v -0.77500241 7.4226956e-3 0.89333018
v 0.46211352 7.4226956e-3 0.89333018
v 0.46211352 -7.4226956e-3 0.89333018
vn -0.57735027 -0.57735027 0.57735027
vn -0.57735027 0.57735027 0.57735027
vn 0.57735027 0.57735027 0.57735027
vn 0.57735027 -0.57735027 0.57735027
vn -0.57735027 -0.57735027 -0.57735027
vn -0.57735027 0.57735027 -0.57735027
vn 0.57735027 0.57735027 -0.57735027
vn 0.57735027 -0.57735027 -0.57735027
g cube9_copy10_default2
usemtl default2
s 1
f 45//45 48//48 47//47 46//46
f 45//45 49//49 52//52 48//48
f 46//46 50//50 49//49 45//45
f 47//47 51//51 50//50 46//46
f 48//48 52//52 51//51 47//47
f 50//50 51//51 52//52 49//49
