# Exported from Wings 3D 1.4.1
mtllib SpaceShip1.mtl
o cube9_copy10
#8 vertices, 6 faces
v -0.77500241 -7.4226956e-3 3.33292281
v -0.77500241 7.4226956e-3 3.33292281
v 0.46211352 7.4226956e-3 3.33292281
v 0.46211352 -7.4226956e-3 3.33292281
v -0.77500241 -7.4226956e-3 0.89333018
v -0.77500241 7.4226956e-3 0.89333018
v 0.46211352 7.4226956e-3 0.89333018
v 0.46211352 -7.4226956e-3 0.89333018
vn -0.57735027 -0.57735027 0.57735027
vn -0.57735027 0.57735027 0.57735027
vn 0.57735027 0.57735027 0.57735027
vn 0.57735027 -0.57735027 0.57735027
vn -0.57735027 -0.57735027 -0.57735027
vn -0.57735027 0.57735027 -0.57735027
vn 0.57735027 0.57735027 -0.57735027
vn 0.57735027 -0.57735027 -0.57735027
g cube9_copy10_default2
usemtl default2
s 1
f 1//1 4//4 3//3 2//2
f 1//1 5//5 8//8 4//4
f 2//2 6//6 5//5 1//1
f 3//3 7//7 6//6 2//2
f 4//4 8//8 7//7 3//3
f 6//6 7//7 8//8 5//5
o cube9
#8 vertices, 6 faces
v -0.77500241 -7.4226956e-3 -0.89523896
v -0.77500241 7.4226956e-3 -0.89523896
v 0.46211352 7.4226956e-3 -0.89523896
v 0.46211352 -7.4226956e-3 -0.89523896
v -0.77500241 -7.4226956e-3 -3.33483158
v -0.77500241 7.4226956e-3 -3.33483158
v 0.46211352 7.4226956e-3 -3.33483158
v 0.46211352 -7.4226956e-3 -3.33483158
vn -0.57735027 -0.57735027 0.57735027
vn -0.57735027 0.57735027 0.57735027
vn 0.57735027 0.57735027 0.57735027
vn 0.57735027 -0.57735027 0.57735027
vn -0.57735027 -0.57735027 -0.57735027
vn -0.57735027 0.57735027 -0.57735027
vn 0.57735027 0.57735027 -0.57735027
vn 0.57735027 -0.57735027 -0.57735027
g cube9_default2
usemtl default2
s 1
f 9//9 12//12 11//11 10//10
f 9//9 13//13 16//16 12//12
f 10//10 14//14 13//13 9//9
f 11//11 15//15 14//14 10//10
f 12//12 16//16 15//15 11//11
f 14//14 15//15 16//16 13//13
o body
#30 vertices, 26 faces
v 0.78544807 -0.79668800 0.0000000e+0
v 0.78544807 -0.39834400 0.68995205
v 0.78544807 0.39834400 0.68995205
v 0.78544807 0.79668800 9.7566141e-17
v 0.78544807 0.39834400 -0.68995205
v 0.78544807 -0.39834400 -0.68995205
v -1.24614248 -0.79668800 0.0000000e+0
v -1.24614248 -0.39834400 0.68995205
v -1.24614248 0.39834400 0.68995205
v -1.24614248 0.79668800 9.7566141e-17
v -1.24614248 0.39834400 -0.68995205
v -1.24614248 -0.39834400 -0.68995205
v -1.78591744 -0.47482605 5.9556425e-18
v -1.78591744 -0.23741302 0.41121142
v -1.78591744 0.23741302 0.41121142
v -1.78591744 0.47482605 6.4105062e-17
v -1.78591744 0.23741302 -0.41121142
v -1.78591744 -0.23741302 -0.41121142
v -1.91295693 -0.24501024 -3.5814443e-18
v -1.91295693 -0.12250512 0.21218509
v -1.91295693 0.12250512 0.21218509
v -1.91295693 0.24501024 2.6423656e-17
v -1.91295693 0.12250512 -0.21218509
v -1.91295693 -0.12250512 -0.21218509
v 1.17681301 -0.30760124 0.53278097
v 1.17681301 -0.61520247 -2.5797956e-18
v 1.17681301 -0.30760124 -0.53278097
v 1.17681301 0.30760124 -0.53278097
v 1.17681301 0.61520247 7.2760778e-17
v 1.17681301 0.30760124 0.53278097
vn 0.21783893 -0.97598473 -1.7846631e-16
vn 0.21783893 -0.48799237 0.84522757
vn 0.21783893 0.48799237 0.84522757
vn 0.21783893 0.97598473 2.7581156e-16
vn 0.21783893 0.48799237 -0.84522757
vn 0.21783893 -0.48799237 -0.84522757
vn -0.27011677 -0.96282757 -2.2875686e-16
vn -0.27011677 -0.48141378 0.83383313
vn -0.27011677 0.48141378 0.83383313
vn -0.27011677 0.96282757 2.6143641e-16
vn -0.27011677 0.48141378 -0.83383313
vn -0.27011677 -0.48141378 -0.83383313
vn -0.72534083 -0.68838992 -1.5465486e-16
vn -0.72534083 -0.34419496 0.59616316
vn -0.72534083 0.34419496 0.59616316
vn -0.72534083 0.68838992 2.0105132e-16
vn -0.72534083 0.34419496 -0.59616316
vn -0.72534083 -0.34419496 -0.59616316
vn -0.94474677 -0.32780108 -5.8578322e-17
vn -0.94474677 -0.16390054 0.28388407
vn -0.94474677 0.16390054 0.28388407
vn -0.94474677 0.32780108 9.7630537e-17
vn -0.94474677 0.16390054 -0.28388407
vn -0.94474677 -0.16390054 -0.28388407
vn 0.73560063 -0.33870773 0.58665900
vn 0.73560063 -0.67741546 -9.3584353e-17
vn 0.73560063 -0.33870773 -0.58665900
vn 0.73560063 0.33870773 -0.58665900
vn 0.73560063 0.67741546 2.1056479e-16
vn 0.73560063 0.33870773 0.58665900
g body_default2
usemtl default2
s 1
f 17//17 23//23 28//28 22//22
f 17//17 42//42 41//41 18//18
f 18//18 24//24 23//23 17//17
f 18//18 41//41 46//46 19//19
f 19//19 25//25 24//24 18//18
f 19//19 46//46 45//45 20//20
f 20//20 26//26 25//25 19//19
f 20//20 45//45 44//44 21//21
f 21//21 27//27 26//26 20//20
f 21//21 44//44 43//43 22//22
f 22//22 28//28 27//27 21//21
f 22//22 43//43 42//42 17//17
f 23//23 29//29 34//34 28//28
f 24//24 30//30 29//29 23//23
f 25//25 31//31 30//30 24//24
f 26//26 32//32 31//31 25//25
f 27//27 33//33 32//32 26//26
f 28//28 34//34 33//33 27//27
f 29//29 35//35 40//40 34//34
f 30//30 36//36 35//35 29//29
f 31//31 37//37 36//36 30//30
f 32//32 38//38 37//37 31//31
f 33//33 39//39 38//38 32//32
f 34//34 40//40 39//39 33//33
f 36//36 37//37 38//38 39//39 40//40 35//35
f 42//42 43//43 44//44 45//45 46//46 41//41
