# Exported from Wings 3D 1.4.1
mtllib TurretsDoubleSmall.mtl
o cube4_copy7
#12 vertices, 10 faces
v 2.17920089 -4.9748712e-2 -0.33303412
v 2.17920089 4.9748712e-2 -0.33303412
v 3.08199807 4.9748712e-2 -0.33303412
v 3.08199807 -4.9748712e-2 -0.33303412
v 2.17920089 -4.9748712e-2 -0.43253154
v 2.17920089 4.9748712e-2 -0.43253154
v 3.08199807 4.9748712e-2 -0.43253154
v 3.08199807 -4.9748712e-2 -0.43253154
v 3.14118155 2.3978879e-2 -0.35880395
v 3.14118155 -2.3978879e-2 -0.35880395
v 3.14118155 -2.3978879e-2 -0.40676171
v 3.14118155 2.3978879e-2 -0.40676171
vn -0.57735027 -0.57735027 0.57735027
vn -0.57735027 0.57735027 0.57735027
vn 0.28253518 0.67829709 0.67829709
vn 0.28253518 -0.67829709 0.67829709
vn -0.57735027 -0.57735027 -0.57735027
vn -0.57735027 0.57735027 -0.57735027
vn 0.28253518 0.67829709 -0.67829709
vn 0.28253518 -0.67829709 -0.67829709
vn 0.81115927 0.41353394 0.41353394
vn 0.81115927 -0.41353394 0.41353394
vn 0.81115927 -0.41353394 -0.41353394
vn 0.81115927 0.41353394 -0.41353394
g cube4_copy7_default2
usemtl default2
s 1
f 1//1 4//4 3//3 2//2
f 1//1 5//5 8//8 4//4
f 2//2 6//6 5//5 1//1
f 3//3 7//7 6//6 2//2
f 3//3 9//9 12//12 7//7
f 4//4 10//10 9//9 3//3
f 6//6 7//7 8//8 5//5
f 7//7 12//12 11//11 8//8
f 8//8 11//11 10//10 4//4
f 10//10 11//11 12//12 9//9
o cube4_copy6
#12 vertices, 10 faces
v 2.17920089 -4.9748712e-2 0.42429921
v 2.17920089 4.9748712e-2 0.42429921
v 3.08199807 4.9748712e-2 0.42429921
v 3.08199807 -4.9748712e-2 0.42429921
v 2.17920089 -4.9748712e-2 0.32480179
v 2.17920089 4.9748712e-2 0.32480179
v 3.08199807 4.9748712e-2 0.32480179
v 3.08199807 -4.9748712e-2 0.32480179
v 3.14118155 2.3978879e-2 0.39852938
v 3.14118155 -2.3978879e-2 0.39852938
v 3.14118155 -2.3978879e-2 0.35057162
v 3.14118155 2.3978879e-2 0.35057162
vn -0.57735027 -0.57735027 0.57735027
vn -0.57735027 0.57735027 0.57735027
vn 0.28253518 0.67829709 0.67829709
vn 0.28253518 -0.67829709 0.67829709
vn -0.57735027 -0.57735027 -0.57735027
vn -0.57735027 0.57735027 -0.57735027
vn 0.28253518 0.67829709 -0.67829709
vn 0.28253518 -0.67829709 -0.67829709
vn 0.81115927 0.41353394 0.41353394
vn 0.81115927 -0.41353394 0.41353394
vn 0.81115927 -0.41353394 -0.41353394
vn 0.81115927 0.41353394 -0.41353394
g cube4_copy6_default2
usemtl default2
s 1
f 13//13 16//16 15//15 14//14
f 13//13 17//17 20//20 16//16
f 14//14 18//18 17//17 13//13
f 15//15 19//19 18//18 14//14
f 15//15 21//21 24//24 19//19
f 16//16 22//22 21//21 15//15
f 18//18 19//19 20//20 17//17
f 19//19 24//24 23//23 20//20
f 20//20 23//23 22//22 16//16
f 22//22 23//23 24//24 21//21
o turret
#58 vertices, 64 faces
v 2.10929760 0.71829786 -3.0467305e-18
v 2.02215346 0.71829786 0.21038457
v 1.81176889 0.71829786 0.29752871
v 1.60138432 0.71829786 0.21038457
v 1.51424017 0.71829786 3.3390028e-17
v 1.60138432 0.71829786 -0.21038457
v 1.81176889 0.71829786 -0.29752871
v 2.02215346 0.71829786 -0.21038457
v 2.36153027 0.54976138 -3.0467305e-18
v 2.20050889 0.54976138 0.38874000
v 1.81176889 0.54976138 0.54976138
v 1.42302889 0.54976138 0.38874000
v 1.26200751 0.54976138 6.4279621e-17
v 1.42302889 0.54976138 -0.38874000
v 1.81176889 0.54976138 -0.54976138
v 2.20050889 0.54976138 -0.38874000
v 2.53006675 0.29752871 -3.0467305e-18
v 2.31968218 0.29752871 0.50791329
v 1.81176889 0.29752871 0.71829786
v 1.30385560 0.29752871 0.50791329
v 1.09347103 0.29752871 8.4919387e-17
v 1.30385560 0.29752871 -0.50791329
v 1.81176889 0.29752871 -0.71829786
v 2.31968218 0.29752871 -0.50791329
v 2.58924889 4.8799682e-17 -3.0467305e-18
v 2.36153027 4.8799682e-17 0.54976138
v 1.81176889 4.8799682e-17 0.77748000
v 1.26200751 4.8799682e-17 0.54976138
v 1.03428889 4.8799682e-17 9.2167109e-17
v 1.26200751 4.8799682e-17 -0.54976138
v 1.81176889 4.8799682e-17 -0.77748000
v 2.36153027 4.8799682e-17 -0.54976138
v 2.53006675 -0.29752871 -3.0467305e-18
v 2.31968218 -0.29752871 0.50791329
v 1.81176889 -0.29752871 0.71829786
v 1.30385560 -0.29752871 0.50791329
v 1.09347103 -0.29752871 8.4919387e-17
v 1.30385560 -0.29752871 -0.50791329
v 1.81176889 -0.29752871 -0.71829786
v 2.31968218 -0.29752871 -0.50791329
v 2.36153027 -0.54976138 -3.0467305e-18
v 2.20050889 -0.54976138 0.38874000
v 1.81176889 -0.54976138 0.54976138
v 1.42302889 -0.54976138 0.38874000
v 1.26200751 -0.54976138 6.4279621e-17
v 1.42302889 -0.54976138 -0.38874000
v 1.81176889 -0.54976138 -0.54976138
v 2.20050889 -0.54976138 -0.38874000
v 2.10929760 -0.71829786 -3.0467305e-18
v 2.02215346 -0.71829786 0.21038457
v 1.81176889 -0.71829786 0.29752871
v 1.60138432 -0.71829786 0.21038457
v 1.51424017 -0.71829786 3.3390028e-17
v 1.60138432 -0.71829786 -0.21038457
v 1.81176889 -0.71829786 -0.29752871
v 2.02215346 -0.71829786 -0.21038457
v 1.81176889 0.77748000 -3.0467305e-18
v 1.81176889 -0.77748000 -3.0467305e-18
vn 0.38061083 0.92473531 -2.8711574e-16
vn 0.26913250 0.92473531 0.26913250
vn -4.7374097e-16 0.92473531 0.38061083
vn -0.26913250 0.92473531 0.26913250
vn -0.38061083 0.92473531 7.1778935e-16
vn -0.26913250 0.92473531 -0.26913250
vn -1.6509155e-16 0.92473531 -0.38061083
vn 0.26913250 0.92473531 -0.26913250
vn 0.70497678 0.70923039 -8.8433913e-17
vn 0.49849386 0.70923039 0.49849386
vn -3.9795261e-16 0.70923039 0.70497678
vn -0.49849386 0.70923039 0.49849386
vn -0.70497678 0.70923039 2.5056275e-16
vn -0.49849386 0.70923039 -0.49849386
vn -4.1269159e-16 0.70923039 -0.70497678
vn 0.49849386 0.70923039 -0.49849386
vn 0.92310379 0.38455089 4.5352361e-17
vn 0.65273295 0.38455089 0.65273295
vn -2.5699671e-16 0.38455089 0.92310379
vn -0.65273295 0.38455089 0.65273295
vn -0.92310379 0.38455089 1.5117454e-16
vn -0.65273295 0.38455089 -0.65273295
vn -4.5352361e-16 0.38455089 -0.92310379
vn 0.65273295 0.38455089 -0.65273295
vn 1.00000000 0.0000000e+0 6.1090999e-17
vn 0.70710678 7.6363749e-18 0.70710678
vn -2.7490950e-16 0.0000000e+0 1.00000000
vn -0.70710678 -7.6363749e-18 0.70710678
vn -1.00000000 7.6363749e-18 2.7490950e-16
vn -0.70710678 0.0000000e+0 -0.70710678
vn -4.2763700e-16 0.0000000e+0 -1.00000000
vn 0.70710678 7.6363749e-18 -0.70710678
vn 0.92310379 -0.38455089 4.5352361e-17
vn 0.65273295 -0.38455089 0.65273295
vn -2.5699671e-16 -0.38455089 0.92310379
vn -0.65273295 -0.38455089 0.65273295
vn -0.92310379 -0.38455089 1.5117454e-16
vn -0.65273295 -0.38455089 -0.65273295
vn -4.5352361e-16 -0.38455089 -0.92310379
vn 0.65273295 -0.38455089 -0.65273295
vn 0.70497678 -0.70923039 2.2108478e-17
vn 0.49849386 -0.70923039 0.49849386
vn -2.8741022e-16 -0.70923039 0.70497678
vn -0.49849386 -0.70923039 0.49849386
vn -0.70497678 -0.70923039 1.4738985e-17
vn -0.49849386 -0.70923039 -0.49849386
vn -4.7901703e-16 -0.70923039 -0.70497678
vn 0.49849386 -0.70923039 -0.49849386
vn 0.38061083 -0.92473531 7.1778935e-18
vn 0.26913250 -0.92473531 0.26913250
vn -1.9380312e-16 -0.92473531 0.38061083
vn -0.26913250 -0.92473531 0.26913250
vn -0.38061083 -0.92473531 3.5889468e-17
vn -0.26913250 -0.92473531 -0.26913250
vn -3.1582731e-16 -0.92473531 -0.38061083
vn 0.26913250 -0.92473531 -0.26913250
vn -3.4424800e-16 1.00000000 1.2421320e-16
vn -8.8723712e-17 -1.00000000 -2.6617114e-17
g turret_default2
usemtl default2
s 1
f 25//25 33//33 40//40 32//32
f 25//25 81//81 26//26
f 26//26 34//34 33//33 25//25
f 26//26 81//81 27//27
f 27//27 35//35 34//34 26//26
f 27//27 81//81 28//28
f 28//28 36//36 35//35 27//27
f 28//28 81//81 29//29
f 29//29 37//37 36//36 28//28
f 29//29 81//81 30//30
f 30//30 38//38 37//37 29//29
f 30//30 81//81 31//31
f 31//31 39//39 38//38 30//30
f 31//31 81//81 32//32
f 32//32 40//40 39//39 31//31
f 32//32 81//81 25//25
f 33//33 41//41 48//48 40//40
f 34//34 42//42 41//41 33//33
f 35//35 43//43 42//42 34//34
f 36//36 44//44 43//43 35//35
f 37//37 45//45 44//44 36//36
f 38//38 46//46 45//45 37//37
f 39//39 47//47 46//46 38//38
f 40//40 48//48 47//47 39//39
f 41//41 49//49 56//56 48//48
f 42//42 50//50 49//49 41//41
f 43//43 51//51 50//50 42//42
f 44//44 52//52 51//51 43//43
f 45//45 53//53 52//52 44//44
f 46//46 54//54 53//53 45//45
f 47//47 55//55 54//54 46//46
f 48//48 56//56 55//55 47//47
f 49//49 57//57 64//64 56//56
f 50//50 58//58 57//57 49//49
f 51//51 59//59 58//58 50//50
f 52//52 60//60 59//59 51//51
f 53//53 61//61 60//60 52//52
f 54//54 62//62 61//61 53//53
f 55//55 63//63 62//62 54//54
f 56//56 64//64 63//63 55//55
f 57//57 65//65 72//72 64//64
f 58//58 66//66 65//65 57//57
f 59//59 67//67 66//66 58//58
f 60//60 68//68 67//67 59//59
f 61//61 69//69 68//68 60//60
f 62//62 70//70 69//69 61//61
f 63//63 71//71 70//70 62//62
f 64//64 72//72 71//71 63//63
f 65//65 73//73 80//80 72//72
f 66//66 74//74 73//73 65//65
f 67//67 75//75 74//74 66//66
f 68//68 76//76 75//75 67//67
f 69//69 77//77 76//76 68//68
f 70//70 78//78 77//77 69//69
f 71//71 79//79 78//78 70//70
f 72//72 80//80 79//79 71//71
f 73//73 82//82 80//80
f 74//74 82//82 73//73
f 75//75 82//82 74//74
f 76//76 82//82 75//75
f 77//77 82//82 76//76
f 78//78 82//82 77//77
f 79//79 82//82 78//78
f 80//80 82//82 79//79
