# Exported from Wings 3D 1.4.1
mtllib Barrel.mtl
o cube4_copy7
#16 vertices, 14 faces
v -0.57577764 -5.0445194e-2 -1.82807863
v -0.57577764 5.0445194e-2 -1.82807863
v 1.75268914 5.0445194e-2 -1.82807863
v 1.75268914 -5.0445194e-2 -1.82807863
v -0.57577764 -5.0445194e-2 -1.92896902
v -0.57577764 5.0445194e-2 -1.92896902
v 1.75268914 5.0445194e-2 -1.92896902
v 1.75268914 -5.0445194e-2 -1.92896902
v 1.92664483 0.11198752 -1.76653630
v 1.92664483 -0.11198752 -1.76653630
v 1.92664483 -0.11198752 -1.99051135
v 1.92664483 0.11198752 -1.99051135
v 2.11153372 5.8681463e-2 -1.81984236
v 2.11153372 -5.8681463e-2 -1.81984236
v 2.11153372 -5.8681463e-2 -1.93720529
v 2.11153372 5.8681463e-2 -1.93720529
vn -0.57735027 -0.57735027 0.57735027
vn -0.57735027 0.57735027 0.57735027
vn -0.23593422 0.68714447 0.68714447
vn -0.23593422 -0.68714447 0.68714447
vn -0.57735027 -0.57735027 -0.57735027
vn -0.57735027 0.57735027 -0.57735027
vn -0.23593422 0.68714447 -0.68714447
vn -0.23593422 -0.68714447 -0.68714447
vn -4.1933872e-2 0.70648480 0.70648480
vn -4.1933872e-2 -0.70648480 0.70648480
vn -4.1933872e-2 -0.70648480 -0.70648480
vn -4.1933872e-2 0.70648480 -0.70648480
vn 0.75280208 0.46545087 0.46545087
vn 0.75280208 -0.46545087 0.46545087
vn 0.75280208 -0.46545087 -0.46545087
vn 0.75280208 0.46545087 -0.46545087
g cube4_copy7_default2
usemtl default2
s 1
f 1//1 4//4 3//3 2//2
f 1//1 5//5 8//8 4//4
f 2//2 6//6 5//5 1//1
f 3//3 7//7 6//6 2//2
f 3//3 9//9 12//12 7//7
f 4//4 10//10 9//9 3//3
f 6//6 7//7 8//8 5//5
f 7//7 12//12 11//11 8//8
f 8//8 11//11 10//10 4//4
f 9//9 13//13 16//16 12//12
f 10//10 14//14 13//13 9//9
f 11//11 15//15 14//14 10//10
f 12//12 16//16 15//15 11//11
f 14//14 15//15 16//16 13//13
