# Exported from Wings 3D 1.4.1
mtllib Meteorite.mtl
o sphere1
#26 vertices, 32 faces
v 0.78486960 0.66134928 0.30177216
v 0.19996591 0.29932354 0.13332092
v -0.12304798 0.14292790 0.50712808
v -0.43390283 0.55647735 0.58204612
v -0.68321467 0.63384837 -9.6656385e-2
v -0.39156097 0.27975059 -0.43859869
v 6.8255361e-2 0.17272993 -0.34104350
v 0.47648416 0.46575535 -0.44608190
v 1.12744892 0.26078846 0.20450839
v 0.61991103 0.16918177 0.73062155
v 0.25597811 -0.26291236 0.94199020
v -0.64100961 3.8875191e-2 0.78915290
v -0.77944302 0.13655051 0.24243766
v -0.48221281 -5.8194784e-2 -0.35607025
v 3.5527342e-2 8.0474534e-2 -0.60970671
v 0.78660844 -4.6274807e-2 -0.46387117
v 0.77320395 -0.47872697 8.2046116e-2
v 0.52308503 -0.22897512 0.21681186
v 0.18390987 -0.50760494 0.31717795
v -0.43390283 -0.47872697 0.58204612
v -0.64100961 -0.47872697 8.2046116e-2
v -0.43390283 -0.47872697 -0.41795388
v 6.6097168e-2 -0.47872697 -0.62506067
v 0.56609717 -0.47872697 -0.41795388
v -0.16408736 0.55202338 0.23657740
v 6.6097168e-2 -0.69312481 8.2046116e-2
vn 0.25338734 0.85340680 0.45551256
vn 8.8530372e-2 0.47121203 0.87756572
vn 0.36423449 0.62583282 0.68968582
vn 9.2045891e-2 0.81528529 0.57169699
vn -0.46921356 0.85434626 -0.22345270
vn -0.10108493 0.65476492 -0.74904255
vn -0.12443980 0.61898579 -0.77548136
vn -4.5773520e-3 0.74755668 -0.66418225
vn 0.94749760 0.11337968 0.29898720
vn 0.40004359 0.10938827 0.90994469
vn 0.30873399 5.2006240e-3 0.95113421
vn -0.61184941 -3.5458570e-2 0.79017908
vn -0.99572349 -1.9630093e-2 -9.0273955e-2
vn -0.65217306 9.1415997e-2 -0.75253798
vn -8.9436460e-2 0.21361001 -0.97281647
vn 0.54691899 0.14738641 -0.82410974
vn 0.55860716 -0.73850913 0.37757425
vn 0.54098487 -0.62314541 0.56482313
vn 0.40405167 -0.79079915 0.45975966
vn -0.31868072 -0.82904684 0.45948224
vn -0.71349911 -0.69936022 -4.2594502e-2
vn -0.55616018 -0.62174648 -0.55146819
vn -4.9022893e-2 -0.62110043 -0.78219628
vn 0.46651657 -0.72480984 -0.50696449
vn 0.28242506 0.95381991 0.10229203
vn 0.10047431 -0.98385604 0.14809525
g sphere1_default
usemtl default
s 1
f 1//1 9//9 16//16 8//8
f 1//1 25//25 2//2
f 2//2 10//10 9//9 1//1
f 2//2 25//25 3//3
f 3//3 11//11 10//10 2//2
f 3//3 25//25 4//4
f 4//4 12//12 11//11 3//3
f 4//4 25//25 5//5
f 5//5 13//13 12//12 4//4
f 5//5 25//25 6//6
f 6//6 14//14 13//13 5//5
f 6//6 25//25 7//7
f 7//7 15//15 14//14 6//6
f 7//7 25//25 8//8
f 8//8 16//16 15//15 7//7
f 8//8 25//25 1//1
f 9//9 17//17 24//24 16//16
f 10//10 18//18 17//17 9//9
f 11//11 19//19 18//18 10//10
f 12//12 20//20 19//19 11//11
f 13//13 21//21 20//20 12//12
f 14//14 22//22 21//21 13//13
f 15//15 23//23 22//22 14//14
f 16//16 24//24 23//23 15//15
f 17//17 26//26 24//24
f 18//18 26//26 17//17
f 19//19 26//26 18//18
f 20//20 26//26 19//19
f 21//21 26//26 20//20
f 22//22 26//26 21//21
f 23//23 26//26 22//22
f 24//24 26//26 23//23
