# Exported from Wings 3D 1.4.1
mtllib Shoot0.mtl
o cone6
#9 vertices, 9 faces
v 3.53265169 -1.2353707e-4 8.9996000e-2
v 3.53265169 8.9872463e-2 -3.7122018e-18
v 3.53265169 -1.2353707e-4 -8.9996000e-2
v 3.53265169 -9.0119537e-2 -2.5754864e-17
v 3.88183617 -1.2353707e-4 -6.4329524e-17
v 3.01743964 -1.2353707e-4 7.5500000e-2
v 3.01743964 7.5376463e-2 -6.9076482e-18
v 3.01743964 -1.2353707e-4 -7.5500000e-2
v 3.01743964 -7.5623537e-2 -2.5399815e-17
vn 0.11291779 2.3594254e-16 0.99360433
vn 0.11291779 0.99360433 -2.7526629e-16
vn 0.11291779 -2.3594254e-16 -0.99360433
vn 0.11291779 -0.99360433 1.9661878e-16
vn 1.00000000 1.5480745e-16 -1.5480745e-16
vn -0.59243677 -1.8977151e-16 0.80561695
vn -0.59243677 0.80561695 1.2651434e-16
vn -0.59243677 1.2651434e-16 -0.80561695
vn -0.59243677 -0.80561695 -1.8977151e-16
g cone6_default
usemtl default
s 1
f 1//1 5//5 2//2
f 1//1 6//6 9//9 4//4
f 2//2 5//5 3//3
f 2//2 7//7 6//6 1//1
f 3//3 5//5 4//4
f 3//3 8//8 7//7 2//2
f 4//4 5//5 1//1
f 4//4 9//9 8//8 3//3
f 7//7 8//8 9//9 6//6
