# Exported from Wings 3D 1.4.1
mtllib SpaceShip2.mtl
o body
#98 vertices, 92 faces
v -2.06988830 -0.71000835 -8.0172576e-4
v -2.06988830 -0.29583973 -0.67139737
v -2.06204107 0.34753581 -1.04701004
v -2.12434863 0.70320896 -1.7422114e-2
v 0.62276204 -0.71000835 -8.0172576e-4
v 0.62276204 -0.29583973 -0.67139737
v 0.62276204 0.41416861 -0.67139737
v 0.63484097 0.70859152 -1.2995404e-2
v 1.12046070 -0.42316497 -8.0172576e-4
v 1.12046070 -0.21158249 -0.33135913
v 1.12046070 0.21158249 -0.33135913
v 1.12046070 0.42316497 -8.0172576e-4
v 1.36205606 -0.19084064 -8.0172576e-4
v 1.36205606 -9.5420313e-2 -0.14987782
v 1.36205606 9.5420313e-2 -0.14987782
v 1.36205606 0.19084064 -8.0172576e-4
v 1.36205606 9.5420313e-2 0.14827437
v 1.36205606 -9.5420313e-2 0.14827437
v -4.85417230 -0.26243311 -0.52573349
v -4.85403516 -0.52491247 -0.11611556
v -4.86146248 0.64983943 -8.6776463e-2
v -4.87328816 0.56920600 -0.23816061
v -5.09713387 -0.14380309 -0.37281757
v -5.09713387 -0.30811238 -0.11611556
v -5.09713387 -0.14380309 0.14058645
v -5.09713387 0.18434861 0.14058645
v -5.09713387 0.34865788 -0.11611556
v -5.09713387 0.18434861 -0.37281757
v -2.01980822 -0.18738045 -0.89212154
v -2.01976550 0.28556710 -0.69774024
v 0.39627406 0.49905472 -0.73321840
v 0.22443972 -0.16803823 -0.89212154
v -1.64732118 -0.52409480 -2.09428588
v -1.75533782 0.60373925 -2.02439276
v 2.5126398e-2 0.28636711 -2.49069932
v 2.5126398e-2 -0.16803823 -2.49069932
v -0.28678753 0.92091418 -2.08109115
v -1.82570302 0.69555200 -1.52000421
v -1.78218302 0.69555200 -1.09993666
v -0.15746530 1.02751054 -1.16190447
v -2.37332422 0.25832903 -1.12262305
v -2.37334806 0.24798248 -1.55221421
v -2.24075320 0.42424749 -1.34704864
v -2.24075320 0.42424749 -1.42089338
v -2.37334806 -5.5756981e-3 -1.55221421
v -2.37334806 -5.5756981e-3 -1.23108781
v -3.17683387 0.13845185 -1.84825963
v -3.17683387 -5.3877684e-2 -1.84825963
v -4.72514941 -4.9581020e-2 -1.88266284
v -4.72522568 8.5775060e-2 -1.88254104
v -3.76588103 3.7747420e-2 -3.09941470
v -3.76584777 2.8231349e-2 -3.09942542
v -4.54672990 2.3096460e-2 -3.07133515
v -4.54671731 2.9793601e-2 -3.07129606
v -2.07959367 -0.28686902 0.67839907
v -2.07711191 0.36146584 1.04900196
v 0.61277828 -0.28661170 0.71711698
v 0.61284613 0.42333393 0.70768049
v 1.11532298 -0.20683368 0.38318056
v 1.11536342 0.21629392 0.37755641
v 1.35951401 -9.3070684e-2 0.20366410
v 1.35953224 9.7753086e-2 0.20112770
v -4.86149209 -0.25566740 0.49228360
v -4.87597543 0.57168986 0.13557812
v -5.10221841 -0.13910343 0.33432675
v -5.10218705 0.18901928 0.32996539
v -2.03268222 -0.17548096 0.89835954
v -2.02979928 0.29484136 0.69773033
v 0.38550075 0.50901253 0.76510478
v 0.21133555 -0.15592598 0.93037275
v -1.67755192 -0.49615241 2.11012459
v -1.78444461 0.63064277 2.02370202
v -1.0899872e-2 0.31966634 2.51973875
v -1.0943297e-2 -0.13469886 2.52577810
v -0.31683111 0.94868358 2.09729051
v -1.84754110 0.71573702 1.51717812
v -1.79798541 0.71015820 1.09781688
v -0.17429498 1.04306629 1.17872286
v -2.38943348 0.27321889 1.11780982
v -2.39563544 0.26858280 1.54745580
v -2.26008734 0.44211812 1.34189348
v -2.26114917 0.44309956 1.41572406
v -2.39565967 1.5047017e-2 1.55082576
v -2.39104216 1.0779032e-2 1.22976092
v -3.20330552 0.16291970 1.83334678
v -3.20332390 -2.9392845e-2 1.83590297
v -4.75008130 -2.5537167e-2 1.85256536
v -4.75014288 0.10980533 1.85064351
v -3.81801924 8.1939468e-2 3.08731062
v -3.81784487 7.2424239e-2 3.08831138
v -4.58513458 6.1496440e-2 3.05176179
v -4.58505138 6.8192909e-2 3.05109632
v -2.18200484 1.62042595 -4.9559273e-2
v -4.89359073 0.99833393 -0.10141909
v -4.90534389 0.86165416 0.25904794
v -2.15916595 1.24288810 0.75535348
v -2.13889209 1.21382322 -0.82542840
v -4.89638831 0.84836783 -0.38554329
vn -2.8986135e-2 -0.99939694 -1.9119712e-2
vn 0.27215857 -0.77165170 -0.57487682
vn 0.63153491 0.16606619 -0.75735439
vn 0.70544669 0.70875670 -2.9830287e-3
vn 0.26149847 -0.96517354 -7.6541215e-3
vn 0.33648402 -0.57057581 -0.74914735
vn 0.53300219 0.25507480 -0.80674997
vn 0.29261227 0.95608395 -1.6779162e-2
vn 0.59659787 -0.80234320 -1.7786708e-2
vn 0.61270737 -0.38683647 -0.68916414
vn 0.63419862 0.38769004 -0.66894584
vn 0.62054692 0.78381091 -2.3706174e-2
vn 0.92476496 -0.38053857 4.0749005e-4
vn 0.84981012 -0.24941900 -0.46434139
vn 0.84981012 0.24941900 -0.46434139
vn 0.92457774 0.38098569 -2.4319616e-3
vn 0.99972666 4.3831427e-5 2.3379342e-2
vn 0.99972666 4.3831427e-5 2.3379342e-2
vn -0.50017836 -0.62322247 -0.60117831
vn -0.38265735 -0.92217572 -5.6260919e-2
vn -0.96089337 0.27398707 -4.0187235e-2
vn -0.71202295 0.39882279 -0.57789592
vn -0.77257083 -0.19144479 -0.60537857
vn -0.91429228 -0.40249233 -4.5492354e-2
vn -0.99991253 -2.1326887e-5 -1.3226510e-2
vn -0.99991253 -2.1326887e-5 -1.3226510e-2
vn -0.94942232 0.31071746 -4.5297996e-2
vn -0.78413575 0.33228444 -0.52413565
vn -0.10853671 -0.99145749 -7.2331416e-2
vn -0.35952794 3.4052387e-2 0.93251278
vn 0.98003371 7.2092745e-2 -0.18530128
vn 0.53376201 -0.68437995 -0.49671139
vn -0.46793551 -0.66432994 -0.58283968
vn -0.46814098 0.43223609 -0.77072433
vn 0.49658818 0.44910954 -0.74276564
vn 0.49539646 -0.63860847 -0.58886464
vn 0.16664510 0.91401651 -0.36986922
vn -0.40013420 0.88272326 -0.24635801
vn -0.36885475 0.87937705 0.30106839
vn 0.22883984 0.95057952 0.20983542
vn -0.90385245 0.32115147 0.28268795
vn -0.86612449 0.39271728 -0.30919494
vn -0.64573063 0.75207997 0.13193812
vn -0.65513038 0.75162864 -7.6541332e-2
vn -0.88452626 -0.35113088 -0.30711625
vn -0.86865960 -0.42092929 0.26124516
vn 0.56281742 0.61624918 -0.55088428
vn 0.49252347 -0.74832917 -0.44432431
vn -0.70092376 -0.69336794 -0.16717290
vn -0.70213759 0.68399755 -0.19786397
vn 0.42585596 0.50574767 -0.75024396
vn 0.43675079 -0.49980825 -0.74795753
vn -0.54701415 -0.53145350 -0.64678644
vn -0.55661284 0.53007343 -0.63969079
vn 0.26348598 -0.77696859 0.57174728
vn 0.62117223 0.19588997 0.75879653
vn 0.32770076 -0.57122551 0.75253812
vn 0.52539933 0.27680896 0.80456966
vn 0.61039331 -0.39843168 0.68459638
vn 0.63102608 0.41341493 0.65642531
vn 0.84498567 -0.25721504 0.46887060
vn 0.84473994 0.26610121 0.46433241
vn -0.50487395 -0.65255485 0.56504377
vn -0.72169485 0.43433185 0.53899201
vn -0.79437868 -0.20653705 0.57123109
vn -0.80078518 0.37162172 0.46972374
vn -0.10745413 -0.99093025 8.0689876e-2
vn -0.33957702 2.1258362e-2 -0.94033799
vn 0.97717222 7.4582633e-2 0.19892682
vn 0.52649916 -0.67766686 0.51338705
vn -0.47633134 -0.65656964 0.58482883
vn -0.47913360 0.44239661 0.75810041
vn 0.48589945 0.45898918 0.74379477
vn 0.48681687 -0.63067831 0.60436264
vn 0.16139683 0.91886751 0.36004662
vn -0.40355088 0.88588132 0.22882522
vn -0.36440348 0.87526273 -0.31800198
vn 0.23192427 0.94772857 -0.21913851
vn -0.89966351 0.31727961 -0.29989867
vn -0.87044336 0.39670922 0.29146208
vn -0.64369484 0.75019829 -0.15119350
vn -0.65609141 0.75251693 5.7116819e-2
vn -0.88888443 -0.34710261 0.29900544
vn -0.86485354 -0.42444724 -0.26809120
vn 0.55369881 0.62561930 0.54956176
vn 0.48616413 -0.74207753 0.46148172
vn -0.70364477 -0.69057369 0.16730815
vn -0.70461754 0.68740242 0.17604557
vn 0.40551823 0.54847963 0.73124897
vn 0.43709289 -0.45519169 0.77572568
vn -0.56838245 -0.48917347 0.66155174
vn -0.55274918 0.57054498 0.60740989
vn 0.64226417 0.76626356 -1.8354615e-2
vn -0.82846840 0.55949953 -2.4502826e-2
vn -0.67431700 0.43276366 0.59834121
vn 0.29972766 0.59819800 0.74318402
vn 0.32390239 0.54118481 -0.77601949
vn -0.65852131 0.39441012 -0.64092928
g body_default2
usemtl default2
s 1
f 1//1 20//20 19//19 2//2
f 1//1 55//55 63//63 20//20
f 2//2 6//6 5//5 1//1
f 2//2 29//29 32//32 6//6
f 2//2 48//48 47//47 3//3
f 3//3 30//30 29//29 2//2
f 3//3 47//47 50//50 22//22
f 3//3 97//97 93//93 4//4
f 4//4 8//8 7//7 3//3
f 4//4 56//56 58//58 8//8
f 5//5 57//57 55//55 1//1
f 6//6 10//10 9//9 5//5
f 6//6 32//32 31//31 7//7
f 7//7 11//11 10//10 6//6
f 7//7 31//31 30//30 3//3
f 8//8 12//12 11//11 7//7
f 8//8 58//58 60//60 12//12
f 9//9 59//59 57//57 5//5
f 10//10 14//14 13//13 9//9
f 11//11 15//15 14//14 10//10
f 12//12 16//16 15//15 11//11
f 12//12 60//60 62//62 16//16
f 13//13 61//61 59//59 9//9
f 14//14 15//15 16//16 17//17 18//18 13//13
f 18//18 17//17 16//16 62//62 61//61 13//13
f 19//19 23//23 28//28 22//22
f 19//19 49//49 48//48 2//2
f 20//20 24//24 23//23 19//19
f 20//20 63//63 65//65 24//24
f 21//21 94//94 98//98 22//22
f 22//22 28//28 27//27 21//21
f 22//22 50//50 49//49 19//19
f 22//22 98//98 97//97 3//3
f 24//24 25//25 26//26 27//27 28//28 23//23
f 24//24 65//65 66//66 27//27 26//26 25//25
f 27//27 66//66 64//64 21//21
f 29//29 33//33 36//36 32//32
f 29//29 46//46 45//45 33//33
f 30//30 39//39 43//43 41//41
f 30//30 41//41 46//46 29//29
f 31//31 40//40 39//39 30//30
f 32//32 36//36 35//35 31//31
f 33//33 45//45 42//42 34//34
f 34//34 35//35 36//36 33//33
f 34//34 38//38 37//37 35//35
f 34//34 42//42 44//44 38//38
f 35//35 37//37 40//40 31//31
f 38//38 39//39 40//40 37//37
f 38//38 44//44 43//43 39//39
f 41//41 43//43 44//44 42//42
f 42//42 45//45 46//46 41//41
f 47//47 51//51 54//54 50//50
f 48//48 52//52 51//51 47//47
f 49//49 53//53 52//52 48//48
f 50//50 54//54 53//53 49//49
f 52//52 53//53 54//54 51//51
f 55//55 67//67 68//68 56//56
f 55//55 86//86 87//87 63//63
f 56//56 68//68 69//69 58//58
f 56//56 85//85 86//86 55//55
f 56//56 96//96 95//95 64//64
f 57//57 59//59 60//60 58//58
f 57//57 70//70 67//67 55//55
f 58//58 69//69 70//70 57//57
f 59//59 61//61 62//62 60//60
f 63//63 87//87 88//88 64//64
f 64//64 66//66 65//65 63//63
f 64//64 88//88 85//85 56//56
f 64//64 95//95 94//94 21//21
f 67//67 84//84 79//79 68//68
f 68//68 77//77 78//78 69//69
f 69//69 73//73 74//74 70//70
f 69//69 78//78 75//75 73//73
f 70//70 74//74 71//71 67//67
f 71//71 74//74 73//73 72//72
f 71//71 83//83 84//84 67//67
f 72//72 80//80 83//83 71//71
f 73//73 75//75 76//76 72//72
f 75//75 78//78 77//77 76//76
f 76//76 82//82 80//80 72//72
f 77//77 81//81 82//82 76//76
f 79//79 81//81 77//77 68//68
f 79//79 84//84 83//83 80//80
f 80//80 82//82 81//81 79//79
f 85//85 89//89 90//90 86//86
f 86//86 90//90 91//91 87//87
f 87//87 91//91 92//92 88//88
f 88//88 92//92 89//89 85//85
f 89//89 92//92 91//91 90//90
f 93//93 96//96 56//56 4//4
f 93//93 97//97 98//98 94//94
f 94//94 95//95 96//96 93//93
