# Exported from Wings 3D 1.4.1
mtllib SpaceShip5.mtl
o body
#126 vertices, 120 faces
v -6.29727004 -0.96320317 3.5812635e-3
v -6.29727004 -0.44367171 -0.83761123
v -7.39480885 1.19882729 -1.32731569
v -6.33589655 0.80833937 -1.7234169e-2
v 0.63018238 -0.68805036 -3.6612182e-4
v 0.63018238 -0.28630680 -0.65084389
v 0.63018238 -6.7891100e-3 -0.65084389
v 0.64189895 0.68799151 -1.2193989e-2
v 1.11295008 -0.40981228 -3.6612182e-4
v 1.11295008 -0.20457728 -0.32100680
v 1.11295008 0.20589275 -0.32100680
v 1.11295008 0.41112776 -3.6612182e-4
v 1.36205606 -0.19084064 -8.0172576e-4
v 1.36205606 -9.5420313e-2 -0.14987782
v 1.36205606 9.5420313e-2 -0.14987782
v 1.36205606 0.19084064 -8.0172576e-4
v 1.36205606 9.5420313e-2 0.14827437
v 1.36205606 -9.5420313e-2 0.14827437
v -9.62308841 -0.65211576 -0.80830413
v -8.32689581 -0.73101964 -0.14106795
v -9.62974217 0.78061173 -0.11892044
v -8.96468390 2.51881737 -1.35317243
v -10.75297471 -2.6081331e-2 -0.58423120
v -10.75312274 -0.23438414 -0.14565098
v -10.75312274 -1.1084209e-3 0.21879796
v -10.75312274 0.46478016 0.21879796
v -10.75312274 0.69805587 -0.14565098
v -10.75297471 0.48928215 -0.58423120
v -6.26076197 -0.30762082 -1.11448675
v -6.26073083 0.28564269 -0.87065563
v 0.23925613 0.20214922 -1.42516060
v 0.14268523 4.3188974e-2 -1.46302532
v -1.76297601 -0.44559981 -2.01327822
v -1.63968299 0.52524426 -2.10540042
v 3.0671139e-2 0.15146831 -1.84394722
v 3.0671139e-2 4.3188974e-2 -1.84394722
v -0.14462449 0.27014808 -1.74634251
v -1.82570302 0.69555200 -1.52000421
v -1.78218302 0.69555200 -1.09993666
v -7.1945396e-2 0.29554872 -1.52731135
v -6.51845894 0.43272918 -1.07771822
v -6.51849498 0.40581141 -2.19535003
v -2.24075320 0.42424749 -1.34704864
v -2.24075320 0.42424749 -1.42089338
v -6.51849498 -0.25384994 -2.19535003
v -6.51849498 -0.25384994 -1.35990203
v -7.42579734 0.29409918 -2.63212834
v -7.42579734 0.19856125 -2.63212834
v -7.87276746 0.20069557 -2.64921782
v -9.05442213 0.18634744 -3.30512550
v -7.77110071 0.24407517 -3.75262614
v -7.59583478 0.23934815 -3.25363346
v -7.69766534 0.23679744 -3.23967988
v -7.99651372 0.24012419 -3.73865847
v -6.30434519 -0.43241889 0.85556802
v -7.39750664 1.21736321 1.28131089
v 0.62049813 -0.27735561 0.69601502
v 0.62056395 2.1012400e-3 0.68686163
v 1.10796650 -0.19997093 0.37209669
v 1.10800572 0.21046284 0.36664127
v 1.35951401 -9.3070684e-2 0.20366410
v 1.35953224 9.7753086e-2 0.20112770
v -9.62976919 -0.64149018 0.79049558
v -8.96734765 2.53711849 1.28077772
v -10.50001191 -1.0720426e-2 0.29030703
v -10.49998603 0.45512701 0.28411505
v -6.27014703 -0.29269416 1.13148555
v -6.26804538 0.29727628 0.87981708
v 0.22277372 0.22128400 1.45399446
v 0.12489287 6.2837132e-2 1.49337583
v -1.79200332 -0.41772972 2.00995893
v -1.66999321 0.55222008 2.12386768
v -3.4346120e-6 0.17616508 1.87210268
v -2.7839127e-5 6.7895300e-2 1.87354178
v -0.17193679 0.29352715 1.77143833
v -1.84754110 0.71573702 1.51717812
v -1.79798541 0.71015820 1.09781688
v -9.1831487e-2 0.31601742 1.55255468
v -6.52746899 0.44705940 1.07850826
v -6.53684594 0.43499808 2.19628267
v -2.26008734 0.44211812 1.34189348
v -2.26114917 0.44309956 1.41572406
v -6.53688257 -0.22460500 2.20505001
v -6.52990120 -0.23570867 1.36976218
v -7.44612742 0.32643200 2.61341163
v -7.44613273 0.23090251 2.61468139
v -7.89265304 0.23281778 2.62295828
v -9.07931356 0.22655601 3.29436800
v -7.79884025 0.28620581 3.73530465
v -7.62353359 0.28147921 3.23680377
v -7.72144027 0.27605093 3.21864809
v -8.02026827 0.27937734 3.71731554
v -7.00916904 2.44588002 -5.3677079e-2
v -9.06018333 2.40452170 -0.10309911
v -9.11665988 2.86013553 0.22751194
v -7.11244677 2.75623975 0.53715496
v -7.11317534 2.73323041 -0.62319016
v -9.11722815 2.84706040 -0.36369051
v -7.42579734 1.34904177 -2.63212834
v -9.05442213 0.98773656 -3.30512550
v -9.10793624 1.28839169 -2.28245325
v -7.10397724 1.45290231 -2.23411497
v -7.77110071 0.56911057 -3.75262614
v -7.99651372 0.56515959 -3.73865847
v -7.44612742 1.38137460 2.61341163
v -9.07931356 1.02794512 3.29436800
v -8.02026827 0.60441273 3.71731554
v -7.79884025 0.61124121 3.73530465
v -7.12101612 1.48000057 2.22379554
v -9.12479313 1.31520012 2.22773539
v -10.68679494 0.69276434 1.22627148
v -10.68126941 0.14962864 1.46043813
v -10.63876523 0.30070235 2.35342310
v -10.63878873 0.38955074 2.35216146
v -10.66923201 0.12048415 -1.55261945
v -10.67652487 0.66643077 -1.36383630
v -10.62003775 0.34907257 -2.44332368
v -10.62000865 0.26021529 -2.44340365
v -3.18446172 -7.1711897e-2 3.21403449
v -3.22443959 0.34970950 3.18171245
v -5.00183769 0.27653839 3.24625762
v -5.00185139 2.9846834e-2 3.24953660
v -3.19819672 0.30653777 -3.17866378
v -3.15779850 -0.11527217 -3.20480381
v -4.97961750 -1.4200591e-2 -3.24260180
v -4.97961750 0.23251275 -3.24260180
vn 1.4933401e-2 -0.99974951 -1.6670427e-2
vn 0.23480321 -0.71209835 -0.66165202
vn 0.54650437 0.52056019 -0.65601072
vn 0.62891906 0.77741849 -9.0172088e-3
vn 0.28086044 -0.95972216 -7.1270325e-3
vn 0.44807659 -0.62286116 -0.64130441
vn 0.44662977 0.48259568 -0.75340777
vn 0.20926121 0.97773723 -1.5480533e-2
vn 0.57769032 -0.81604509 -1.8555495e-2
vn 0.59468771 -0.39366071 -0.70098343
vn 0.54829895 0.37471071 -0.74763637
vn 0.52191917 0.85252285 -2.8375655e-2
vn 0.91696453 -0.39896856 -3.6346032e-4
vn 0.83419307 -0.26144897 -0.48555779
vn 0.83472832 0.26078241 -0.48499605
vn 0.91727487 0.39824128 -3.2702172e-3
vn 0.99972666 4.3855504e-5 2.3379351e-2
vn 0.99972666 4.3855504e-5 2.3379351e-2
vn -0.24776038 -0.92897418 -0.27499412
vn -0.16370565 -0.98650109 4.0063385e-3
vn -0.81712292 0.57564237 3.0757245e-2
vn -0.68432765 0.68919498 -0.23813009
vn -0.75949804 -0.50219039 -0.41348221
vn -0.65579568 -0.66250212 0.36197095
vn -0.79400942 2.7116996e-3 0.60789941
vn -0.79400942 2.7116996e-3 0.60789941
vn -0.75358214 0.53697379 0.37917426
vn -0.90646140 0.35237246 -0.23272596
vn -0.15349643 -0.98287875 -0.10192260
vn -0.43557703 0.81246167 -0.38752896
vn 0.87459915 0.26783976 -0.40415119
vn 0.62028098 -0.73596063 -0.27131800
vn 0.21360904 -0.86087871 -0.46179977
vn 0.23938330 0.76307772 -0.60033993
vn 0.56830149 0.50016988 -0.65334792
vn 0.58838537 -0.66206994 -0.46418320
vn 0.28002889 0.93634709 -0.21174971
vn -4.2320442e-2 0.99729779 -6.0050750e-2
vn -9.7401117e-2 0.95499633 0.28016964
vn 0.37676514 0.86678472 0.32669908
vn -0.70277123 0.68658035 0.18633312
vn -0.46921746 0.84140648 -0.26808602
vn -0.20334092 0.97760275 -5.4270931e-2
vn -0.20857584 0.97731585 3.6740312e-2
vn -0.58803399 -0.70370241 -0.39877180
vn -0.77460786 -0.56704478 0.28007656
vn 0.96099689 0.11140703 -0.25312735
vn 0.74223006 -0.51055912 -0.43407825
vn -2.1028412e-2 -0.98249476 -0.18509957
vn -0.65369352 -0.59856459 -0.46303910
vn 0.72392597 -0.29511938 -0.62356695
vn 0.46913863 -0.86535996 -0.17624156
vn 1.9548511e-2 -0.99899852 -4.0246909e-2
vn -0.13506833 -0.70366733 -0.69757354
vn 0.22171318 -0.71603930 0.66191463
vn 0.53852814 0.53957307 0.64718494
vn 0.44231236 -0.62143809 0.64666411
vn 0.43416208 0.51325816 0.74031706
vn 0.59134413 -0.40433456 0.69772894
vn 0.53879977 0.40873045 0.73663711
vn 0.82919555 -0.26981430 0.48952526
vn 0.82946171 0.27841571 0.48422925
vn -0.31002053 -0.91596672 0.25473954
vn -0.71048595 0.67275225 0.20643189
vn -0.47620725 -0.41602146 0.77469529
vn -0.61686981 0.37427507 0.69237981
vn -0.16099921 -0.98085409 0.10956505
vn -0.45604398 0.81258716 0.36294076
vn 0.86726243 0.27548250 0.41468696
vn 0.61840734 -0.73015479 0.29059654
vn 0.20945510 -0.86037343 0.46463548
vn 0.23807162 0.76628759 0.59676229
vn 0.56015329 0.49975735 0.66065943
vn 0.57583849 -0.66385069 0.47719210
vn 0.27789011 0.93860530 0.20444356
vn -4.2831740e-2 0.99800044 4.6481839e-2
vn -9.8225969e-2 0.95102866 -0.29308044
vn 0.38373905 0.86175328 -0.33185182
vn -0.70017321 0.68479055 -0.20203806
vn -0.46962222 0.84514610 0.25530971
vn -0.20315361 0.97832619 4.0080783e-2
vn -0.20813149 0.97675905 -5.1215564e-2
vn -0.58896209 -0.69948921 0.40476969
vn -0.77023396 -0.57233616 -0.28137338
vn 0.95940864 0.10827205 0.26040779
vn 0.73606270 -0.50929598 0.44590279
vn -2.5481839e-2 -0.98009960 0.19686402
vn -0.65537633 -0.60344043 0.45424830
vn 0.71913725 -0.30013429 0.62670649
vn 0.47383828 -0.86053259 0.18697844
vn 2.6530557e-2 -0.99841588 4.9617082e-2
vn -0.13241295 -0.70084928 0.70091162
vn 0.68755876 0.72611037 5.1653880e-3
vn -0.67544206 0.73739554 5.0839512e-3
vn -0.38328995 0.92113127 6.7867505e-2
vn 0.54679439 0.79739946 0.25528417
vn 0.55264053 0.79051080 -0.26397181
vn -0.39686050 0.91506546 -7.1811884e-2
vn 0.69914017 0.56034512 -0.44409050
vn -0.53495264 0.58962354 -0.60511962
vn -0.41396379 0.87885832 -0.23715405
vn 0.55747468 0.75049958 -0.35492585
vn 0.41937824 0.35472905 -0.83563700
vn -0.14495169 0.30001246 -0.94285817
vn 0.69753837 0.56257083 0.44379532
vn -0.53573398 0.59220321 0.60190071
vn -0.14786599 0.30011095 0.94237417
vn 0.41229110 0.35589842 0.83866105
vn 0.55257693 0.75751538 0.34760494
vn -0.41795220 0.88285802 0.21419072
vn -0.89686223 0.40024894 -0.18825231
vn -0.84130106 -0.45832248 -0.28662349
vn -0.52957581 -0.81978104 0.21796446
vn -0.91516212 -0.18871186 0.35618273
vn -0.85415843 -0.44118356 0.27526430
vn -0.90088287 0.40478501 0.15671358
vn -0.90572335 -0.19630526 -0.37567201
vn -0.52068182 -0.82696151 -0.21219119
vn 0.25403590 -0.42130403 0.87061397
vn 0.26844319 0.42321819 0.86534653
vn -0.24136695 0.45285133 0.85829346
vn -0.24349014 -0.38425910 0.89053776
vn 0.26803503 0.41805781 -0.86797747
vn 0.25483216 -0.42586095 -0.86816071
vn -0.24289482 -0.39587826 -0.88559726
vn -0.24058801 0.44108207 -0.86461785
g body_default2
usemtl default2
s 1
f 1//1 20//20 19//19 2//2
f 1//1 55//55 63//63 20//20
f 2//2 6//6 5//5 1//1
f 2//2 29//29 32//32 6//6
f 2//2 48//48 47//47 3//3
f 3//3 30//30 29//29 2//2
f 3//3 97//97 93//93 4//4
f 3//3 102//102 101//101 22//22
f 4//4 8//8 7//7 3//3
f 4//4 56//56 58//58 8//8
f 4//4 93//93 96//96 56//56
f 5//5 57//57 55//55 1//1
f 6//6 10//10 9//9 5//5
f 6//6 32//32 31//31 7//7
f 7//7 11//11 10//10 6//6
f 7//7 31//31 30//30 3//3
f 8//8 12//12 11//11 7//7
f 8//8 58//58 60//60 12//12
f 9//9 59//59 57//57 5//5
f 10//10 14//14 13//13 9//9
f 11//11 15//15 14//14 10//10
f 12//12 16//16 15//15 11//11
f 12//12 60//60 62//62 16//16
f 13//13 61//61 59//59 9//9
f 14//14 15//15 16//16 17//17 18//18 13//13
f 18//18 17//17 16//16 62//62 61//61 13//13
f 19//19 23//23 28//28 22//22
f 19//19 49//49 48//48 2//2
f 19//19 115//115 118//118 49//49
f 20//20 24//24 23//23 19//19
f 20//20 63//63 65//65 24//24
f 21//21 94//94 98//98 22//22
f 22//22 28//28 27//27 21//21
f 22//22 98//98 97//97 3//3
f 22//22 101//101 100//100 50//50
f 22//22 116//116 115//115 19//19
f 24//24 25//25 26//26 27//27 28//28 23//23
f 24//24 65//65 66//66 27//27 26//26 25//25
f 27//27 66//66 64//64 21//21
f 29//29 33//33 36//36 32//32
f 29//29 46//46 45//45 33//33
f 30//30 41//41 46//46 29//29
f 31//31 40//40 39//39 30//30
f 32//32 36//36 35//35 31//31
f 33//33 124//124 123//123 34//34
f 34//34 35//35 36//36 33//33
f 34//34 38//38 37//37 35//35
f 34//34 42//42 44//44 38//38
f 34//34 123//123 126//126 42//42
f 35//35 37//37 40//40 31//31
f 38//38 39//39 40//40 37//37
f 38//38 44//44 43//43 39//39
f 39//39 43//43 41//41 30//30
f 41//41 43//43 44//44 42//42
f 42//42 45//45 46//46 41//41
f 42//42 126//126 125//125 45//45
f 45//45 125//125 124//124 33//33
f 47//47 99//99 102//102 3//3
f 48//48 52//52 51//51 47//47
f 49//49 53//53 52//52 48//48
f 49//49 118//118 117//117 50//50
f 50//50 54//54 53//53 49//49
f 50//50 100//100 104//104 54//54
f 50//50 117//117 116//116 22//22
f 51//51 103//103 99//99 47//47
f 52//52 53//53 54//54 51//51
f 54//54 104//104 103//103 51//51
f 55//55 67//67 68//68 56//56
f 55//55 86//86 87//87 63//63
f 56//56 68//68 69//69 58//58
f 56//56 85//85 86//86 55//55
f 56//56 96//96 95//95 64//64
f 56//56 109//109 105//105 85//85
f 57//57 59//59 60//60 58//58
f 57//57 70//70 67//67 55//55
f 58//58 69//69 70//70 57//57
f 59//59 61//61 62//62 60//60
f 63//63 112//112 111//111 64//64
f 64//64 66//66 65//65 63//63
f 64//64 95//95 94//94 21//21
f 64//64 110//110 109//109 56//56
f 64//64 111//111 114//114 88//88
f 67//67 84//84 79//79 68//68
f 68//68 77//77 78//78 69//69
f 68//68 79//79 81//81 77//77
f 69//69 73//73 74//74 70//70
f 69//69 78//78 75//75 73//73
f 70//70 74//74 71//71 67//67
f 71//71 74//74 73//73 72//72
f 71//71 83//83 84//84 67//67
f 71//71 119//119 122//122 83//83
f 72//72 120//120 119//119 71//71
f 73//73 75//75 76//76 72//72
f 75//75 78//78 77//77 76//76
f 76//76 82//82 80//80 72//72
f 77//77 81//81 82//82 76//76
f 79//79 84//84 83//83 80//80
f 80//80 82//82 81//81 79//79
f 80//80 121//121 120//120 72//72
f 83//83 122//122 121//121 80//80
f 85//85 89//89 90//90 86//86
f 85//85 105//105 108//108 89//89
f 86//86 90//90 91//91 87//87
f 87//87 91//91 92//92 88//88
f 87//87 113//113 112//112 63//63
f 88//88 106//106 110//110 64//64
f 88//88 114//114 113//113 87//87
f 89//89 92//92 91//91 90//90
f 89//89 108//108 107//107 92//92
f 92//92 107//107 106//106 88//88
f 93//93 97//97 98//98 94//94
f 94//94 95//95 96//96 93//93
f 99//99 103//103 104//104 100//100
f 100//100 101//101 102//102 99//99
f 105//105 109//109 110//110 106//106
f 106//106 107//107 108//108 105//105
f 112//112 113//113 114//114 111//111
f 116//116 117//117 118//118 115//115
f 120//120 121//121 122//122 119//119
f 124//124 125//125 126//126 123//123
