# Exported from Wings 3D 1.4.1
mtllib Starship0.mtl
o cube7
#8 vertices, 6 faces
v -5.7620000e-2 -5.7620000e-2 1.27673907
v -5.7620000e-2 5.7620000e-2 1.27673907
v 5.7620000e-2 5.7620000e-2 1.27673907
v 5.7620000e-2 -5.7620000e-2 1.27673907
v -5.7620000e-2 -5.7620000e-2 -0.91588354
v -5.7620000e-2 5.7620000e-2 -0.91588354
v 5.7620000e-2 5.7620000e-2 -0.91588354
v 5.7620000e-2 -5.7620000e-2 -0.91588354
vn -0.57735027 -0.57735027 0.57735027
vn -0.57735027 0.57735027 0.57735027
vn 0.57735027 0.57735027 0.57735027
vn 0.57735027 -0.57735027 0.57735027
vn -0.57735027 -0.57735027 -0.57735027
vn -0.57735027 0.57735027 -0.57735027
vn 0.57735027 0.57735027 -0.57735027
vn 0.57735027 -0.57735027 -0.57735027
g cube7_default
usemtl default
s 1
f 1//1 4//4 3//3 2//2
f 1//1 5//5 8//8 4//4
f 2//2 6//6 5//5 1//1
f 3//3 7//7 6//6 2//2
f 4//4 8//8 7//7 3//3
f 6//6 7//7 8//8 5//5
o cube9_copy10
#8 vertices, 6 faces
v -0.60588670 -7.4226956e-3 3.51923392
v -0.60588670 7.4226956e-3 3.51923392
v 0.63122924 7.4226956e-3 3.51923392
v 0.63122924 -7.4226956e-3 3.51923392
v -0.60588670 -7.4226956e-3 1.07964129
v -0.60588670 7.4226956e-3 1.07964129
v 0.63122924 7.4226956e-3 1.07964129
v 0.63122924 -7.4226956e-3 1.07964129
vn -0.57735027 -0.57735027 0.57735027
vn -0.57735027 0.57735027 0.57735027
vn 0.57735027 0.57735027 0.57735027
vn 0.57735027 -0.57735027 0.57735027
vn -0.57735027 -0.57735027 -0.57735027
vn -0.57735027 0.57735027 -0.57735027
vn 0.57735027 0.57735027 -0.57735027
vn 0.57735027 -0.57735027 -0.57735027
g cube9_copy10_default2
usemtl default2
s 1
f 9//9 12//12 11//11 10//10
f 9//9 13//13 16//16 12//12
f 10//10 14//14 13//13 9//9
f 11//11 15//15 14//14 10//10
f 12//12 16//16 15//15 11//11
f 14//14 15//15 16//16 13//13
o body
#40 vertices, 36 faces
v 0.63077343 -0.71000835 1.8599936e-18
v 0.63077343 -0.35500417 0.61488526
v 0.63077343 0.35500417 0.61488526
v 0.63077343 0.71000835 8.8810938e-17
v 0.63077343 0.35500417 -0.61488526
v 0.63077343 -0.35500417 -0.61488526
v -1.16843691 -0.71000835 1.8599936e-18
v -1.16843691 -0.35500417 0.61488526
v -1.16843691 0.35500417 0.61488526
v -1.16843691 0.71000835 8.8810938e-17
v -1.16843691 0.35500417 -0.61488526
v -1.16843691 -0.35500417 -0.61488526
v -1.66613557 -0.42316497 7.1676622e-18
v -1.66613557 -0.21158249 0.36647162
v -1.66613557 0.21158249 0.36647162
v -1.66613557 0.42316497 5.8990425e-17
v -1.66613557 0.21158249 -0.36647162
v -1.66613557 -0.21158249 -0.36647162
v -1.90773093 -0.21835313 -1.3317895e-18
v -1.90773093 -0.10917656 0.18909935
v -1.90773093 0.10917656 0.18909935
v -1.90773093 0.21835313 2.5408756e-17
v -1.90773093 0.10917656 -0.18909935
v -1.90773093 -0.10917656 -0.18909935
v 1.02129461 -0.27413422 0.47481440
v 1.02129461 -0.54826844 -4.3912023e-19
v 1.02129461 -0.27413422 -0.47481440
v 1.02129461 0.27413422 -0.47481440
v 1.02129461 0.54826844 6.6704399e-17
v 1.02129461 0.27413422 0.47481440
v 1.26802177 -1.0742890e-3 3.7985152e-2
v 1.26802177 -2.3005027e-2 1.6988290e-17
v 1.26802177 -1.0742890e-3 -3.7985152e-2
v 1.26802177 4.2787187e-2 -3.7985152e-2
v 1.26802177 6.4717924e-2 2.2359772e-17
v 1.26802177 4.2787187e-2 3.7985152e-2
v 0.58069335 -0.22720267 0.95444082
v 0.58069335 0.22720267 0.95444082
v -0.57080127 0.22720267 0.95444082
v -0.57080127 -0.22720267 0.95444082
vn 0.19688787 -0.98042601 -2.2660707e-16
vn 0.42377081 -0.66628539 0.61358135
vn 0.42377081 0.66628539 0.61358135
vn 0.19688787 0.98042601 3.0753817e-16
vn 0.19688787 0.49021301 -0.84907383
vn 0.19688787 -0.49021301 -0.84907383
vn -0.26260866 -0.96490243 -1.9585496e-16
vn -0.32740395 -0.60818244 0.72313261
vn -0.32740395 0.60818244 0.72313261
vn -0.26260866 0.96490243 3.1010368e-16
vn -0.26260866 0.48245121 -0.83563001
vn -0.26260866 -0.48245121 -0.83563001
vn -0.57618524 -0.81731914 -1.8481335e-16
vn -0.57618524 -0.40865957 0.70781913
vn -0.57618524 0.40865957 0.70781913
vn -0.57618524 0.81731914 2.4641780e-16
vn -0.57618524 0.40865957 -0.70781913
vn -0.57618524 -0.40865957 -0.70781913
vn -0.84250443 -0.53868942 -1.2850782e-16
vn -0.84250443 -0.26934471 0.46651872
vn -0.84250443 0.26934471 0.46651872
vn -0.84250443 0.53868942 1.2850782e-16
vn -0.84250443 0.26934471 -0.46651872
vn -0.84250443 -0.26934471 -0.46651872
vn 0.70069364 -0.35485042 0.61895848
vn 0.70379324 -0.71040486 -1.9266965e-16
vn 0.70069364 -0.35485042 -0.61895848
vn 0.69425283 0.36184053 -0.62216110
vn 0.69091084 0.72293998 2.7185088e-16
vn 0.69425283 0.36184053 0.62216110
vn 0.95648409 -0.14362432 0.25398867
vn 0.95798118 -0.28683106 -7.7124886e-17
vn 0.95648409 -0.14362432 -0.25398867
vn 0.95330943 0.15338303 -0.26014377
vn 0.95162816 0.30725210 1.3579143e-16
vn 0.95330943 0.15338303 0.26014377
vn 0.48863189 -0.46225975 0.73996946
vn 0.48863189 0.46225975 0.73996946
vn -0.20073968 0.38031130 0.90281055
vn -0.20073968 -0.38031130 0.90281055
g body_default2
usemtl default2
s 1
f 17//17 23//23 28//28 22//22
f 17//17 42//42 41//41 18//18
f 18//18 24//24 23//23 17//17
f 18//18 41//41 46//46 19//19
f 18//18 53//53 56//56 24//24
f 19//19 46//46 45//45 20//20
f 19//19 54//54 53//53 18//18
f 20//20 26//26 25//25 19//19
f 20//20 45//45 44//44 21//21
f 21//21 27//27 26//26 20//20
f 21//21 44//44 43//43 22//22
f 22//22 28//28 27//27 21//21
f 22//22 43//43 42//42 17//17
f 23//23 29//29 34//34 28//28
f 24//24 30//30 29//29 23//23
f 24//24 56//56 55//55 25//25
f 25//25 31//31 30//30 24//24
f 25//25 55//55 54//54 19//19
f 26//26 32//32 31//31 25//25
f 27//27 33//33 32//32 26//26
f 28//28 34//34 33//33 27//27
f 29//29 35//35 40//40 34//34
f 30//30 36//36 35//35 29//29
f 31//31 37//37 36//36 30//30
f 32//32 38//38 37//37 31//31
f 33//33 39//39 38//38 32//32
f 34//34 40//40 39//39 33//33
f 36//36 37//37 38//38 39//39 40//40 35//35
f 41//41 47//47 52//52 46//46
f 42//42 48//48 47//47 41//41
f 43//43 49//49 48//48 42//42
f 44//44 50//50 49//49 43//43
f 45//45 51//51 50//50 44//44
f 46//46 52//52 51//51 45//45
f 48//48 49//49 50//50 51//51 52//52 47//47
f 54//54 55//55 56//56 53//53
