# Exported from Wings 3D 1.4.1
mtllib Starship0.mtl
o body
#62 vertices, 58 faces
v -1.17644830 -0.71000835 0.19088816
v -1.17644830 -0.29583973 -0.55256598
v -1.17644830 0.41416861 -0.55256598
v -1.17644830 0.52372061 0.17736967
v -1.69378164 0.35500417 0.80577342
v -1.69378164 -0.35500417 0.80577342
v 0.62276204 -0.71000835 0.19088816
v 0.62276204 -0.29583973 -0.55256598
v 0.62276204 0.41416861 -0.55256598
v 0.62276204 0.52372061 0.17736967
v 0.62276204 0.35500417 0.80577342
v 0.62276204 -0.35500417 0.80577342
v 1.12046070 -0.42316497 0.19088816
v 1.12046070 -0.21158249 -0.17558346
v 1.12046070 0.21158249 -0.17558346
v 1.12046070 0.42316497 0.19088816
v 1.12046070 0.21158249 0.55735978
v 1.12046070 -0.21158249 0.55735978
v 1.36205606 -0.19084064 0.19088816
v 1.36205606 -9.5420313e-2 2.5615332e-2
v 1.36205606 9.5420313e-2 2.5615332e-2
v 1.36205606 0.19084064 0.19088816
v 1.36205606 9.5420313e-2 0.35616100
v 1.36205606 -9.5420313e-2 0.35616100
v -2.19484751 -0.26243311 -0.39107610
v -2.19471036 -0.52491247 6.3045778e-2
v -2.19484751 -0.26243311 0.51716766
v -2.19514280 0.26162547 0.51664484
v -2.19530177 0.52319945 6.3045778e-2
v -2.19514280 0.26162547 -0.39055328
v -2.43780908 6.4593347e-3 3.9086187e-2
v -2.43780908 -7.3737422e-3 6.3045778e-2
v -2.43780908 6.4593347e-3 8.7005370e-2
v -2.43780908 3.4086182e-2 8.7005370e-2
v -2.43780908 4.7919258e-2 6.3045778e-2
v -2.43780908 3.4086182e-2 3.9086187e-2
v -1.12636822 -0.18738045 -0.89212154
v -1.12632550 0.28556710 -0.69774024
v 0.39627406 0.49905472 -0.73321840
v 0.22443972 -0.16803823 -0.89212154
v -1.12636822 -0.18738045 -2.49069932
v -1.12636822 0.26702489 -2.49069932
v 2.5126398e-2 0.28636711 -2.49069932
v 2.5126398e-2 -0.16803823 -2.49069932
v -0.28678753 0.80827418 -2.08109115
v -0.88874302 0.58291200 -2.28288421
v -0.88874302 0.58291200 -1.09993666
v -0.15746530 0.91487054 -1.16190447
v -1.96628224 0.25832903 -1.12262305
v -1.96630607 0.24798248 -2.12309421
v -1.83371121 0.42424749 -1.34704864
v -1.83371121 0.42424749 -2.00713338
v -1.96630607 -5.5756981e-3 -2.12309421
v -1.96630607 -5.5756981e-3 -1.23108781
v -1.16126049 0.26412310 1.25910676
v -1.16126049 -0.26412310 1.25910676
v 0.39246311 -0.26412310 1.25910676
v 0.39246311 0.26412310 1.25910676
v -1.36533738 0.13840051 3.26977342
v -1.36533738 -0.13840051 3.26977342
v -0.66390444 -0.13840051 3.26977342
v -0.66390444 0.13840051 3.26977342
vn -0.10465642 -0.99414857 -2.6751660e-2
vn -0.32011986 -0.68923244 -0.64998609
vn -0.34861252 0.80896070 -0.47334121
vn -5.6595298e-2 0.99791113 3.1150486e-2
vn -0.32473960 0.72847325 0.60321714
vn -0.34515020 -0.66664588 0.66064711
vn 0.26423108 -0.96443513 6.8425798e-3
vn 0.40735224 -0.61711161 -0.67322909
vn 0.40115201 0.74369409 -0.53478609
vn 0.17686940 0.98295271 5.0211432e-2
vn 0.41810370 0.72475228 0.54765265
vn 0.44253261 -0.64998695 0.61780405
vn 0.60355688 -0.79731513 2.7693989e-3
vn 0.64258109 -0.39602490 -0.65593736
vn 0.64093899 0.44177763 -0.62771787
vn 0.53120633 0.84696291 2.1764019e-2
vn 0.57917025 0.44519892 0.68290537
vn 0.60222111 -0.39916467 0.69137349
vn 0.86361013 -0.50416023 6.3082310e-17
vn 0.86361013 -0.25208012 -0.43661556
vn 0.86361013 0.25208012 -0.43661556
vn 0.86361013 0.50416023 -1.0513718e-16
vn 0.86361013 0.25208012 0.43661556
vn 0.86361013 -0.25208012 0.43661556
vn -0.61846554 -0.39391776 -0.67994792
vn -0.63598889 -0.77103049 -3.2095539e-2
vn -0.72839890 -0.37570660 0.57295688
vn -0.70809914 0.41239539 0.57317157
vn -0.57369033 0.81906776 2.7227943e-3
vn -0.62427065 0.44140630 -0.64455150
vn -0.95648409 -0.14362432 -0.25398867
vn -0.95798118 -0.28683106 1.9281221e-17
vn -0.95648409 -0.14362432 0.25398867
vn -0.95330943 0.15338303 0.26014377
vn -0.95162816 0.30725210 -5.8196328e-17
vn -0.95330943 0.15338303 -0.26014377
vn -0.43822633 -0.89486913 8.4657706e-2
vn -0.55384885 0.66634815 0.49923100
vn 0.67542342 0.71563598 -0.17795599
vn 0.56212459 -0.70614269 -0.43055596
vn -0.21186455 -0.70164990 -0.68029467
vn -0.18985896 0.34374103 -0.91967151
vn 0.57198698 0.37707900 -0.72845201
vn 0.52386731 -0.59386844 -0.61064173
vn 0.14200400 0.89302056 -0.42702359
vn -0.23474272 0.87913738 -0.41474489
vn -0.25393147 0.92059003 0.29670323
vn 8.1023075e-2 0.97912505 0.18641190
vn -0.82161652 0.36911920 0.43439302
vn -0.77405750 0.39794541 -0.49241693
vn -0.44083192 0.88181197 0.16755558
vn -0.47104697 0.84558790 -0.25118887
vn -0.76920475 -0.46621141 -0.43700225
vn -0.71979305 -0.58572562 0.37259021
vn -0.60159285 0.72440489 0.33663571
vn -0.60159285 -0.72440489 0.33663571
vn 0.61098903 -0.68035827 0.40472833
vn 0.61098903 0.68035827 0.40472833
vn -0.58318880 0.58504245 0.56357445
vn -0.58318880 -0.58504245 0.56357445
vn 0.43650353 -0.49211906 0.75318225
vn 0.43650353 0.49211906 0.75318225
g body_default2
usemtl default2
s 1
f 1//1 7//7 12//12 6//6
f 1//1 26//26 25//25 2//2
f 2//2 8//8 7//7 1//1
f 2//2 25//25 30//30 3//3
f 2//2 37//37 40//40 8//8
f 3//3 30//30 29//29 4//4
f 3//3 38//38 37//37 2//2
f 4//4 10//10 9//9 3//3
f 4//4 29//29 28//28 5//5
f 5//5 11//11 10//10 4//4
f 5//5 28//28 27//27 6//6
f 5//5 55//55 58//58 11//11
f 6//6 27//27 26//26 1//1
f 6//6 56//56 55//55 5//5
f 7//7 13//13 18//18 12//12
f 8//8 14//14 13//13 7//7
f 8//8 40//40 39//39 9//9
f 9//9 15//15 14//14 8//8
f 9//9 39//39 38//38 3//3
f 10//10 16//16 15//15 9//9
f 11//11 17//17 16//16 10//10
f 11//11 58//58 57//57 12//12
f 12//12 18//18 17//17 11//11
f 12//12 57//57 56//56 6//6
f 13//13 19//19 24//24 18//18
f 14//14 20//20 19//19 13//13
f 15//15 21//21 20//20 14//14
f 16//16 22//22 21//21 15//15
f 17//17 23//23 22//22 16//16
f 18//18 24//24 23//23 17//17
f 20//20 21//21 22//22 23//23 24//24 19//19
f 25//25 31//31 36//36 30//30
f 26//26 32//32 31//31 25//25
f 27//27 33//33 32//32 26//26
f 28//28 34//34 33//33 27//27
f 29//29 35//35 34//34 28//28
f 30//30 36//36 35//35 29//29
f 32//32 33//33 34//34 35//35 36//36 31//31
f 37//37 41//41 44//44 40//40
f 37//37 54//54 53//53 41//41
f 38//38 47//47 51//51 49//49
f 38//38 49//49 54//54 37//37
f 39//39 48//48 47//47 38//38
f 40//40 44//44 43//43 39//39
f 41//41 53//53 50//50 42//42
f 42//42 43//43 44//44 41//41
f 42//42 46//46 45//45 43//43
f 42//42 50//50 52//52 46//46
f 43//43 45//45 48//48 39//39
f 46//46 47//47 48//48 45//45
f 46//46 52//52 51//51 47//47
f 49//49 51//51 52//52 50//50
f 50//50 53//53 54//54 49//49
f 55//55 59//59 62//62 58//58
f 56//56 60//60 59//59 55//55
f 57//57 61//61 60//60 56//56
f 58//58 62//62 61//61 57//57
f 60//60 61//61 62//62 59//59
