# Exported from Wings 3D 1.4.1
mtllib Turret0.mtl
o cube3
#23 vertices, 24 faces
v -0.75188009 -0.49392171 -1.31838701
v -0.76391152 0.55391851 -1.33904182
v 0.51560628 0.34554508 -1.21774099
v 0.69566184 -0.53546675 -1.14219482
v -0.75188009 -0.49392171 -1.81328215
v -0.76391152 0.55391851 -1.78106282
v 0.51560628 0.34554508 -1.90236366
v 0.69566184 -0.53546675 -1.97790982
v -0.92397038 9.0704686e-2 -1.21924351
v 1.1618357e-3 -0.70145225 -1.10764391
v 1.1618357e-3 0.53174825 -1.03153782
v -0.72280089 0.61336641 -1.56005232
v 0.68742627 3.2337464e-3 -1.02185186
v 0.54994902 0.42109125 -1.56005232
v 0.78144902 -0.48013825 -1.56005232
v -0.92397038 9.0704686e-2 -1.90086114
v 1.1618357e-3 -0.70145225 -2.01246074
v 1.1618357e-3 0.53174825 -2.08856682
v 0.68742627 3.2337464e-3 -2.09825278
v 1.1618357e-3 3.2337464e-3 -0.85536632
v 0.79792016 3.2337464e-3 -1.56005232
v 1.1618357e-3 0.70791975 -1.56005232
v 1.1618357e-3 3.2337464e-3 -2.26473832
vn -0.66500499 -0.64643569 0.37401773
vn -0.58747141 0.66582093 0.45995633
vn 0.58173377 0.65968141 0.47582167
vn 0.63761799 -0.59358922 0.49101439
vn -0.66448811 -0.64516811 -0.37711225
vn -0.58747141 0.66582093 -0.45995633
vn 0.58173377 0.65968141 -0.47582167
vn 0.63761799 -0.59358922 -0.49101439
vn -0.89778696 0.10403821 0.42796567
vn 1.3152619e-2 -0.89257074 0.45071552
vn 8.8956979e-2 0.74103220 0.66555085
vn -0.72798604 0.68559195 -4.9799828e-17
vn 0.71399140 0.19273747 0.67310367
vn 0.67908675 0.73405803 -1.4835251e-17
vn 0.67153513 -0.74097272 -3.4678033e-18
vn -0.89685358 0.10601477 -0.42943512
vn 1.4677587e-2 -0.89166705 -0.45245381
vn 8.8956979e-2 0.74103220 -0.66555085
vn 0.71399140 0.19273747 -0.67310367
vn -5.6093386e-2 4.8025422e-2 0.99726982
vn 0.96698608 0.25482920 -2.9500083e-17
vn 0.17578852 0.98442795 -6.0293840e-17
vn -5.4384105e-2 5.0056682e-2 -0.99726461
g cube3_default
usemtl default
s 1
f 1//1 5//5 17//17 10//10
f 1//1 10//10 20//20 9//9
f 2//2 9//9 20//20 11//11
f 3//3 11//11 20//20 13//13
f 4//4 10//10 15//15
f 4//4 13//13 20//20 10//10
f 6//6 12//12 22//22 18//18
f 6//6 16//16 12//12
f 7//7 14//14 21//21 19//19
f 7//7 18//18 22//22 14//14
f 8//8 19//19 21//21 15//15
f 9//9 12//12 16//16
f 9//9 16//16 5//5 1//1
f 10//10 17//17 15//15
f 11//11 22//22 12//12 2//2
f 12//12 9//9 2//2
f 13//13 21//21 14//14 3//3
f 14//14 22//22 11//11 3//3
f 15//15 17//17 8//8
f 15//15 21//21 13//13 4//4
f 16//16 23//23 17//17 5//5
f 17//17 23//23 19//19 8//8
f 18//18 23//23 16//16 6//6
f 19//19 23//23 18//18 7//7
o cube4_copy8
#16 vertices, 14 faces
v 0.41684287 -8.9489774e-2 -1.48248685
v 0.41684287 8.9489774e-2 -1.48248685
v 1.51560909 8.9489774e-2 -1.48248685
v 1.51560909 -8.9489774e-2 -1.48248685
v 0.41684287 -8.9489774e-2 -1.66146640
v 0.41684287 8.9489774e-2 -1.66146640
v 1.51560909 8.9489774e-2 -1.66146640
v 1.51560909 -8.9489774e-2 -1.66146640
v 1.59769599 0.14264209 -1.42933453
v 1.59769599 -0.14264209 -1.42933453
v 1.59769599 -0.14264209 -1.71461872
v 1.59769599 0.14264209 -1.71461872
v 1.90891793 0.10410092 -1.46787571
v 1.90891793 -0.10410092 -1.46787571
v 1.90891793 -0.10410092 -1.67607754
v 1.90891793 0.10410092 -1.67607754
vn -0.57735027 -0.57735027 0.57735027
vn -0.57735027 0.57735027 0.57735027
vn -0.38557174 0.65243177 0.65243177
vn -0.38557174 -0.65243177 0.65243177
vn -0.57735027 -0.57735027 -0.57735027
vn -0.57735027 0.57735027 -0.57735027
vn -0.38557174 0.65243177 -0.65243177
vn -0.38557174 -0.65243177 -0.65243177
vn -0.30885458 0.67253582 0.67253581
vn -0.30885458 -0.67253582 0.67253581
vn -0.30885458 -0.67253582 -0.67253581
vn -0.30885458 0.67253582 -0.67253581
vn 0.66384272 0.52882551 0.52882551
vn 0.66384272 -0.52882551 0.52882551
vn 0.66384272 -0.52882551 -0.52882551
vn 0.66384272 0.52882551 -0.52882551
g cube4_copy8_default2
usemtl default2
s 1
f 24//24 27//27 26//26 25//25
f 24//24 28//28 31//31 27//27
f 25//25 29//29 28//28 24//24
f 26//26 30//30 29//29 25//25
f 26//26 32//32 35//35 30//30
f 27//27 33//33 32//32 26//26
f 29//29 30//30 31//31 28//28
f 30//30 35//35 34//34 31//31
f 31//31 34//34 33//33 27//27
f 32//32 36//36 39//39 35//35
f 33//33 37//37 36//36 32//32
f 34//34 38//38 37//37 33//33
f 35//35 39//39 38//38 34//34
f 37//37 38//38 39//39 36//36
