# Exported from Wings 3D 1.4.1
mtllib TurretsDoubleSmall.mtl
o cube4_copy7
#16 vertices, 14 faces
v -0.57577764 -5.0445194e-2 -1.82807863
v -0.57577764 5.0445194e-2 -1.82807863
v 1.75268914 5.0445194e-2 -1.82807863
v 1.75268914 -5.0445194e-2 -1.82807863
v -0.57577764 -5.0445194e-2 -1.92896902
v -0.57577764 5.0445194e-2 -1.92896902
v 1.75268914 5.0445194e-2 -1.92896902
v 1.75268914 -5.0445194e-2 -1.92896902
v 1.92664483 0.11198752 -1.76653630
v 1.92664483 -0.11198752 -1.76653630
v 1.92664483 -0.11198752 -1.99051135
v 1.92664483 0.11198752 -1.99051135
v 2.11153372 5.8681463e-2 -1.81984236
v 2.11153372 -5.8681463e-2 -1.81984236
v 2.11153372 -5.8681463e-2 -1.93720529
v 2.11153372 5.8681463e-2 -1.93720529
vn -0.57735027 -0.57735027 0.57735027
vn -0.57735027 0.57735027 0.57735027
vn -0.23593422 0.68714447 0.68714447
vn -0.23593422 -0.68714447 0.68714447
vn -0.57735027 -0.57735027 -0.57735027
vn -0.57735027 0.57735027 -0.57735027
vn -0.23593422 0.68714447 -0.68714447
vn -0.23593422 -0.68714447 -0.68714447
vn -4.1933872e-2 0.70648480 0.70648480
vn -4.1933872e-2 -0.70648480 0.70648480
vn -4.1933872e-2 -0.70648480 -0.70648480
vn -4.1933872e-2 0.70648480 -0.70648480
vn 0.75280208 0.46545087 0.46545087
vn 0.75280208 -0.46545087 0.46545087
vn 0.75280208 -0.46545087 -0.46545087
vn 0.75280208 0.46545087 -0.46545087
g cube4_copy7_default2
usemtl default2
s 1
f 1//1 4//4 3//3 2//2
f 1//1 5//5 8//8 4//4
f 2//2 6//6 5//5 1//1
f 3//3 7//7 6//6 2//2
f 3//3 9//9 12//12 7//7
f 4//4 10//10 9//9 3//3
f 6//6 7//7 8//8 5//5
f 7//7 12//12 11//11 8//8
f 8//8 11//11 10//10 4//4
f 9//9 13//13 16//16 12//12
f 10//10 14//14 13//13 9//9
f 11//11 15//15 14//14 10//10
f 12//12 16//16 15//15 11//11
f 14//14 15//15 16//16 13//13
o cube4_copy7
#16 vertices, 14 faces
v -0.57577764 -5.0445194e-2 -1.24245187
v -0.57577764 5.0445194e-2 -1.24245187
v 1.75268914 5.0445194e-2 -1.24245187
v 1.75268914 -5.0445194e-2 -1.24245187
v -0.57577764 -5.0445194e-2 -1.34334226
v -0.57577764 5.0445194e-2 -1.34334226
v 1.75268914 5.0445194e-2 -1.34334226
v 1.75268914 -5.0445194e-2 -1.34334226
v 1.92664483 0.11198752 -1.18090954
v 1.92664483 -0.11198752 -1.18090954
v 1.92664483 -0.11198752 -1.40488459
v 1.92664483 0.11198752 -1.40488459
v 2.11153372 5.8681463e-2 -1.23421560
v 2.11153372 -5.8681463e-2 -1.23421560
v 2.11153372 -5.8681463e-2 -1.35157853
v 2.11153372 5.8681463e-2 -1.35157853
vn -0.57735027 -0.57735027 0.57735027
vn -0.57735027 0.57735027 0.57735027
vn -0.23593422 0.68714447 0.68714447
vn -0.23593422 -0.68714447 0.68714447
vn -0.57735027 -0.57735027 -0.57735027
vn -0.57735027 0.57735027 -0.57735027
vn -0.23593422 0.68714447 -0.68714447
vn -0.23593422 -0.68714447 -0.68714447
vn -4.1933872e-2 0.70648480 0.70648480
vn -4.1933872e-2 -0.70648480 0.70648480
vn -4.1933872e-2 -0.70648480 -0.70648480
vn -4.1933872e-2 0.70648480 -0.70648480
vn 0.75280208 0.46545087 0.46545087
vn 0.75280208 -0.46545087 0.46545087
vn 0.75280208 -0.46545087 -0.46545087
vn 0.75280208 0.46545087 -0.46545087
g cube4_copy7_default2
usemtl default2
s 1
f 17//17 20//20 19//19 18//18
f 17//17 21//21 24//24 20//20
f 18//18 22//22 21//21 17//17
f 19//19 23//23 22//22 18//18
f 19//19 25//25 28//28 23//23
f 20//20 26//26 25//25 19//19
f 22//22 23//23 24//24 21//21
f 23//23 28//28 27//27 24//24
f 24//24 27//27 26//26 20//20
f 25//25 29//29 32//32 28//28
f 26//26 30//30 29//29 25//25
f 27//27 31//31 30//30 26//26
f 28//28 32//32 31//31 27//27
f 30//30 31//31 32//32 29//29
o turret
#58 vertices, 64 faces
v 0.32798356 0.78079552 -1.57866667
v 0.23325718 0.78079552 -1.34997695
v 4.5674705e-3 0.78079552 -1.25525057
v -0.22412224 0.78079552 -1.34997695
v -0.31884862 0.78079552 -1.57866667
v -0.22412224 0.78079552 -1.80735638
v 4.5674705e-3 0.78079552 -1.90208276
v 0.23325718 0.78079552 -1.80735638
v 0.60216249 0.59759502 -1.57866667
v 0.42713096 0.59759502 -1.15610318
v 4.5674705e-3 0.59759502 -0.98107165
v -0.41799602 0.59759502 -1.15610318
v -0.59302755 0.59759502 -1.57866667
v -0.41799602 0.59759502 -2.00123016
v 4.5674705e-3 0.59759502 -2.17626169
v 0.42713096 0.59759502 -2.00123016
v 0.78536299 0.32341609 -1.57866667
v 0.55667328 0.32341609 -1.02656086
v 4.5674705e-3 0.32341609 -0.79787115
v -0.54753834 0.32341609 -1.02656086
v -0.77622805 0.32341609 -1.57866667
v -0.54753834 0.32341609 -2.13077247
v 4.5674705e-3 0.32341609 -2.35946219
v 0.55667328 0.32341609 -2.13077247
v 0.84969445 4.3202545e-17 -1.57866667
v 0.60216249 4.3202545e-17 -0.98107165
v 4.5674705e-3 4.3202545e-17 -0.73353969
v -0.59302755 4.3202545e-17 -0.98107165
v -0.84055951 4.3202545e-17 -1.57866667
v -0.59302755 4.3202545e-17 -2.17626169
v 4.5674705e-3 4.3202545e-17 -2.42379365
v 0.60216249 4.3202545e-17 -2.17626169
v 0.78536299 -0.32341609 -1.57866667
v 0.55667328 -0.32341609 -1.02656086
v 4.5674705e-3 -0.32341609 -0.79787115
v -0.54753834 -0.32341609 -1.02656086
v -0.77622805 -0.32341609 -1.57866667
v -0.54753834 -0.32341609 -2.13077247
v 4.5674705e-3 -0.32341609 -2.35946219
v 0.55667328 -0.32341609 -2.13077247
v 0.60216249 -0.59759502 -1.57866667
v 0.42713096 -0.59759502 -1.15610318
v 4.5674705e-3 -0.59759502 -0.98107165
v -0.41799602 -0.59759502 -1.15610318
v -0.59302755 -0.59759502 -1.57866667
v -0.41799602 -0.59759502 -2.00123016
v 4.5674705e-3 -0.59759502 -2.17626169
v 0.42713096 -0.59759502 -2.00123016
v 0.32798356 -0.78079552 -1.57866667
v 0.23325718 -0.78079552 -1.34997695
v 4.5674705e-3 -0.78079552 -1.25525057
v -0.22412224 -0.78079552 -1.34997695
v -0.31884862 -0.78079552 -1.57866667
v -0.22412224 -0.78079552 -1.80735638
v 4.5674705e-3 -0.78079552 -1.90208276
v 0.23325718 -0.78079552 -1.80735638
v 4.5674705e-3 0.84512698 -1.57866667
v 4.5674705e-3 -0.84512698 -1.57866667
vn 0.38061083 0.92473531 -4.2349572e-16
vn 0.26913250 0.92473531 0.26913250
vn -5.7423148e-16 0.92473531 0.38061083
vn -0.26913250 0.92473531 0.26913250
vn -0.38061083 0.92473531 5.3834201e-16
vn -0.26913250 0.92473531 -0.26913250
vn -1.5073576e-16 0.92473531 -0.38061083
vn 0.26913250 0.92473531 -0.26913250
vn 0.70497678 0.70923039 -1.0317290e-16
vn 0.49849386 0.70923039 0.49849386
vn -4.2743058e-16 0.70923039 0.70497678
vn -0.49849386 0.70923039 0.49849386
vn -0.70497678 0.70923039 1.0317290e-16
vn -0.49849386 0.70923039 -0.49849386
vn -5.4534246e-16 0.70923039 -0.70497678
vn 0.49849386 0.70923039 -0.49849386
vn 0.92310379 0.38455089 1.0582218e-16
vn 0.65273295 0.38455089 0.65273295
vn -3.3258398e-16 0.38455089 0.92310379
vn -0.65273295 0.38455089 0.65273295
vn -0.92310379 0.38455089 -9.0704722e-17
vn -0.65273295 0.38455089 -0.65273295
vn -9.2216467e-16 0.38455089 -0.92310379
vn 0.65273295 0.38455089 -0.65273295
vn 1.00000000 -7.6363749e-18 1.5272750e-16
vn 0.70710678 -7.6363749e-18 0.70710678
vn -3.9709150e-16 -7.6363749e-18 1.00000000
vn -0.70710678 7.6363749e-18 0.70710678
vn -1.00000000 7.6363749e-18 0.0000000e+0
vn -0.70710678 7.6363749e-18 -0.70710678
vn -1.0385470e-15 7.6363749e-18 -1.00000000
vn 0.70710678 -7.6363749e-18 -0.70710678
vn 0.92310379 -0.38455089 1.0582218e-16
vn 0.65273295 -0.38455089 0.65273295
vn -3.3258398e-16 -0.38455089 0.92310379
vn -0.65273295 -0.38455089 0.65273295
vn -0.92310379 -0.38455089 -9.0704722e-17
vn -0.65273295 -0.38455089 -0.65273295
vn -9.2216467e-16 -0.38455089 -0.92310379
vn 0.65273295 -0.38455089 -0.65273295
vn 0.70497678 -0.70923039 0.0000000e+0
vn 0.49849386 -0.70923039 0.49849386
vn -3.4636616e-16 -0.70923039 0.70497678
vn -0.49849386 -0.70923039 0.49849386
vn -0.70497678 -0.70923039 -1.2528138e-16
vn -0.49849386 -0.70923039 -0.49849386
vn -6.0429840e-16 -0.70923039 -0.70497678
vn 0.49849386 -0.70923039 -0.49849386
vn 0.38061083 -0.92473531 -4.3067361e-17
vn 0.26913250 -0.92473531 0.26913250
vn -3.0147153e-16 -0.92473531 0.38061083
vn -0.26913250 -0.92473531 0.26913250
vn -0.38061083 -0.92473531 -6.4601042e-17
vn -0.26913250 -0.92473531 -0.26913250
vn -2.9429363e-16 -0.92473531 -0.38061083
vn 0.26913250 -0.92473531 -0.26913250
vn -3.5844380e-16 1.00000000 1.2776215e-16
vn -1.8454532e-16 -1.00000000 -3.1940536e-17
g turret_default2
usemtl default2
s 1
f 33//33 41//41 48//48 40//40
f 33//33 89//89 34//34
f 34//34 42//42 41//41 33//33
f 34//34 89//89 35//35
f 35//35 43//43 42//42 34//34
f 35//35 89//89 36//36
f 36//36 44//44 43//43 35//35
f 36//36 89//89 37//37
f 37//37 45//45 44//44 36//36
f 37//37 89//89 38//38
f 38//38 46//46 45//45 37//37
f 38//38 89//89 39//39
f 39//39 47//47 46//46 38//38
f 39//39 89//89 40//40
f 40//40 48//48 47//47 39//39
f 40//40 89//89 33//33
f 41//41 49//49 56//56 48//48
f 42//42 50//50 49//49 41//41
f 43//43 51//51 50//50 42//42
f 44//44 52//52 51//51 43//43
f 45//45 53//53 52//52 44//44
f 46//46 54//54 53//53 45//45
f 47//47 55//55 54//54 46//46
f 48//48 56//56 55//55 47//47
f 49//49 57//57 64//64 56//56
f 50//50 58//58 57//57 49//49
f 51//51 59//59 58//58 50//50
f 52//52 60//60 59//59 51//51
f 53//53 61//61 60//60 52//52
f 54//54 62//62 61//61 53//53
f 55//55 63//63 62//62 54//54
f 56//56 64//64 63//63 55//55
f 57//57 65//65 72//72 64//64
f 58//58 66//66 65//65 57//57
f 59//59 67//67 66//66 58//58
f 60//60 68//68 67//67 59//59
f 61//61 69//69 68//68 60//60
f 62//62 70//70 69//69 61//61
f 63//63 71//71 70//70 62//62
f 64//64 72//72 71//71 63//63
f 65//65 73//73 80//80 72//72
f 66//66 74//74 73//73 65//65
f 67//67 75//75 74//74 66//66
f 68//68 76//76 75//75 67//67
f 69//69 77//77 76//76 68//68
f 70//70 78//78 77//77 69//69
f 71//71 79//79 78//78 70//70
f 72//72 80//80 79//79 71//71
f 73//73 81//81 88//88 80//80
f 74//74 82//82 81//81 73//73
f 75//75 83//83 82//82 74//74
f 76//76 84//84 83//83 75//75
f 77//77 85//85 84//84 76//76
f 78//78 86//86 85//85 77//77
f 79//79 87//87 86//86 78//78
f 80//80 88//88 87//87 79//79
f 81//81 90//90 88//88
f 82//82 90//90 81//81
f 83//83 90//90 82//82
f 84//84 90//90 83//83
f 85//85 90//90 84//84
f 86//86 90//90 85//85
f 87//87 90//90 86//86
f 88//88 90//90 87//87
