# Exported from Wings 3D 1.4.1
mtllib TurretsDoubleSmall.mtl
o turret
#58 vertices, 64 faces
v 0.32798356 0.78079552 -1.57866667
v 0.23325718 0.78079552 -1.34997695
v 4.5674705e-3 0.78079552 -1.25525057
v -0.22412224 0.78079552 -1.34997695
v -0.31884862 0.78079552 -1.57866667
v -0.22412224 0.78079552 -1.80735638
v 4.5674705e-3 0.78079552 -1.90208276
v 0.23325718 0.78079552 -1.80735638
v 0.60216249 0.59759502 -1.57866667
v 0.42713096 0.59759502 -1.15610318
v 4.5674705e-3 0.59759502 -0.98107165
v -0.41799602 0.59759502 -1.15610318
v -0.59302755 0.59759502 -1.57866667
v -0.41799602 0.59759502 -2.00123016
v 4.5674705e-3 0.59759502 -2.17626169
v 0.42713096 0.59759502 -2.00123016
v 0.78536299 0.32341609 -1.57866667
v 0.55667328 0.32341609 -1.02656086
v 4.5674705e-3 0.32341609 -0.79787115
v -0.54753834 0.32341609 -1.02656086
v -0.77622805 0.32341609 -1.57866667
v -0.54753834 0.32341609 -2.13077247
v 4.5674705e-3 0.32341609 -2.35946219
v 0.55667328 0.32341609 -2.13077247
v 0.84969445 4.3202545e-17 -1.57866667
v 0.60216249 4.3202545e-17 -0.98107165
v 4.5674705e-3 4.3202545e-17 -0.73353969
v -0.59302755 4.3202545e-17 -0.98107165
v -0.84055951 4.3202545e-17 -1.57866667
v -0.59302755 4.3202545e-17 -2.17626169
v 4.5674705e-3 4.3202545e-17 -2.42379365
v 0.60216249 4.3202545e-17 -2.17626169
v 0.78536299 -0.32341609 -1.57866667
v 0.55667328 -0.32341609 -1.02656086
v 4.5674705e-3 -0.32341609 -0.79787115
v -0.54753834 -0.32341609 -1.02656086
v -0.77622805 -0.32341609 -1.57866667
v -0.54753834 -0.32341609 -2.13077247
v 4.5674705e-3 -0.32341609 -2.35946219
v 0.55667328 -0.32341609 -2.13077247
v 0.60216249 -0.59759502 -1.57866667
v 0.42713096 -0.59759502 -1.15610318
v 4.5674705e-3 -0.59759502 -0.98107165
v -0.41799602 -0.59759502 -1.15610318
v -0.59302755 -0.59759502 -1.57866667
v -0.41799602 -0.59759502 -2.00123016
v 4.5674705e-3 -0.59759502 -2.17626169
v 0.42713096 -0.59759502 -2.00123016
v 0.32798356 -0.78079552 -1.57866667
v 0.23325718 -0.78079552 -1.34997695
v 4.5674705e-3 -0.78079552 -1.25525057
v -0.22412224 -0.78079552 -1.34997695
v -0.31884862 -0.78079552 -1.57866667
v -0.22412224 -0.78079552 -1.80735638
v 4.5674705e-3 -0.78079552 -1.90208276
v 0.23325718 -0.78079552 -1.80735638
v 4.5674705e-3 0.84512698 -1.57866667
v 4.5674705e-3 -0.84512698 -1.57866667
vn 0.38061082 0.92473531 -1.3774279e-9
vn 0.26913250 0.92473531 0.26913249
vn 2.4251921e-10 0.92473531 0.38061083
vn -0.26913249 0.92473531 0.26913249
vn -0.38061082 0.92473531 -1.3774279e-9
vn -0.26913249 0.92473532 -0.26913249
vn 2.4251921e-10 0.92473532 -0.38061082
vn 0.26913249 0.92473531 -0.26913249
vn 0.70497678 0.70923039 -1.5119663e-9
vn 0.49849386 0.70923039 0.49849386
vn 3.0751636e-10 0.70923039 0.70497678
vn -0.49849386 0.70923039 0.49849386
vn -0.70497678 0.70923039 -1.5119663e-9
vn -0.49849386 0.70923039 -0.49849386
vn 3.0751633e-10 0.70923039 -0.70497678
vn 0.49849386 0.70923039 -0.49849386
vn 0.92310379 0.38455089 -1.7064100e-9
vn 0.65273295 0.38455089 0.65273295
vn 3.0751710e-10 0.38455089 0.92310379
vn -0.65273295 0.38455089 0.65273295
vn -0.92310379 0.38455089 -1.7064100e-9
vn -0.65273295 0.38455089 -0.65273295
vn 3.0751707e-10 0.38455089 -0.92310379
vn 0.65273295 0.38455089 -0.65273295
vn 1.00000000 2.2909125e-17 -1.3197701e-9
vn 0.70710678 3.0545500e-17 0.70710678
vn 3.0751772e-10 2.2909125e-17 1.00000000
vn -0.70710678 2.2909125e-17 0.70710678
vn -1.00000000 2.2909125e-17 -1.3197701e-9
vn -0.70710678 3.8181875e-17 -0.70710678
vn 3.0751770e-10 2.2909125e-17 -1.00000000
vn 0.70710678 3.0545500e-17 -0.70710678
vn 0.92310379 -0.38455089 -1.7064100e-9
vn 0.65273295 -0.38455089 0.65273295
vn 3.0751711e-10 -0.38455089 0.92310379
vn -0.65273295 -0.38455089 0.65273295
vn -0.92310379 -0.38455089 -1.7064100e-9
vn -0.65273295 -0.38455089 -0.65273295
vn 3.0751707e-10 -0.38455089 -0.92310379
vn 0.65273295 -0.38455089 -0.65273295
vn 0.70497678 -0.70923039 -1.5119663e-9
vn 0.49849386 -0.70923039 0.49849386
vn 3.0751635e-10 -0.70923039 0.70497678
vn -0.49849386 -0.70923039 0.49849386
vn -0.70497678 -0.70923039 -1.5119663e-9
vn -0.49849386 -0.70923039 -0.49849386
vn 3.0751632e-10 -0.70923039 -0.70497678
vn 0.49849386 -0.70923039 -0.49849386
vn 0.38061082 -0.92473531 -1.3774279e-9
vn 0.26913250 -0.92473531 0.26913249
vn 2.4251921e-10 -0.92473531 0.38061083
vn -0.26913249 -0.92473531 0.26913249
vn -0.38061082 -0.92473531 -1.3774279e-9
vn -0.26913249 -0.92473532 -0.26913249
vn 2.4251921e-10 -0.92473532 -0.38061082
vn 0.26913249 -0.92473531 -0.26913249
vn 2.3643269e-10 1.00000000 -2.3643269e-9
vn 2.3643270e-10 -1.00000000 -2.3643269e-9
g turret_default2
usemtl default2
s 1
f 1//1 9//9 16//16 8//8
f 1//1 57//57 2//2
f 2//2 10//10 9//9 1//1
f 2//2 57//57 3//3
f 3//3 11//11 10//10 2//2
f 3//3 57//57 4//4
f 4//4 12//12 11//11 3//3
f 4//4 57//57 5//5
f 5//5 13//13 12//12 4//4
f 5//5 57//57 6//6
f 6//6 14//14 13//13 5//5
f 6//6 57//57 7//7
f 7//7 15//15 14//14 6//6
f 7//7 57//57 8//8
f 8//8 16//16 15//15 7//7
f 8//8 57//57 1//1
f 9//9 17//17 24//24 16//16
f 10//10 18//18 17//17 9//9
f 11//11 19//19 18//18 10//10
f 12//12 20//20 19//19 11//11
f 13//13 21//21 20//20 12//12
f 14//14 22//22 21//21 13//13
f 15//15 23//23 22//22 14//14
f 16//16 24//24 23//23 15//15
f 17//17 25//25 32//32 24//24
f 18//18 26//26 25//25 17//17
f 19//19 27//27 26//26 18//18
f 20//20 28//28 27//27 19//19
f 21//21 29//29 28//28 20//20
f 22//22 30//30 29//29 21//21
f 23//23 31//31 30//30 22//22
f 24//24 32//32 31//31 23//23
f 25//25 33//33 40//40 32//32
f 26//26 34//34 33//33 25//25
f 27//27 35//35 34//34 26//26
f 28//28 36//36 35//35 27//27
f 29//29 37//37 36//36 28//28
f 30//30 38//38 37//37 29//29
f 31//31 39//39 38//38 30//30
f 32//32 40//40 39//39 31//31
f 33//33 41//41 48//48 40//40
f 34//34 42//42 41//41 33//33
f 35//35 43//43 42//42 34//34
f 36//36 44//44 43//43 35//35
f 37//37 45//45 44//44 36//36
f 38//38 46//46 45//45 37//37
f 39//39 47//47 46//46 38//38
f 40//40 48//48 47//47 39//39
f 41//41 49//49 56//56 48//48
f 42//42 50//50 49//49 41//41
f 43//43 51//51 50//50 42//42
f 44//44 52//52 51//51 43//43
f 45//45 53//53 52//52 44//44
f 46//46 54//54 53//53 45//45
f 47//47 55//55 54//54 46//46
f 48//48 56//56 55//55 47//47
f 49//49 58//58 56//56
f 50//50 58//58 49//49
f 51//51 58//58 50//50
f 52//52 58//58 51//51
f 53//53 58//58 52//52
f 54//54 58//58 53//53
f 55//55 58//58 54//54
f 56//56 58//58 55//55
o cube4_copy7
#16 vertices, 14 faces
v -0.16995127 -0.11186222 -1.76666161
v -0.16995127 0.11186222 -1.76666161
v 1.20350650 0.11186222 -1.76666161
v 1.20350650 -0.11186222 -1.76666161
v -0.16995127 -0.11186222 -1.99038604
v -0.16995127 0.11186222 -1.99038604
v 1.20350650 0.11186222 -1.99038604
v 1.20350650 -0.11186222 -1.99038604
v 1.30611513 0.17830261 -1.70022121
v 1.30611513 -0.17830261 -1.70022121
v 1.30611513 -0.17830261 -2.05682644
v 1.30611513 0.17830261 -2.05682644
v 1.69514255 0.13012615 -1.74839768
v 1.69514255 -0.13012615 -1.74839768
v 1.69514255 -0.13012615 -2.00864997
v 1.69514255 0.13012615 -2.00864997
vn -0.57735027 -0.57735027 0.57735027
vn -0.57735027 0.57735027 0.57735027
vn -0.38557174 0.65243177 0.65243177
vn -0.38557174 -0.65243177 0.65243177
vn -0.57735027 -0.57735027 -0.57735027
vn -0.57735027 0.57735027 -0.57735027
vn -0.38557174 0.65243177 -0.65243177
vn -0.38557174 -0.65243177 -0.65243177
vn -0.30885458 0.67253582 0.67253581
vn -0.30885458 -0.67253582 0.67253581
vn -0.30885458 -0.67253582 -0.67253581
vn -0.30885458 0.67253582 -0.67253581
vn 0.66384272 0.52882551 0.52882551
vn 0.66384272 -0.52882551 0.52882551
vn 0.66384272 -0.52882551 -0.52882551
vn 0.66384272 0.52882551 -0.52882551
g cube4_copy7_default2
usemtl default2
s 1
f 59//59 62//62 61//61 60//60
f 59//59 63//63 66//66 62//62
f 60//60 64//64 63//63 59//59
f 61//61 65//65 64//64 60//60
f 61//61 67//67 70//70 65//65
f 62//62 68//68 67//67 61//61
f 64//64 65//65 66//66 63//63
f 65//65 70//70 69//69 66//66
f 66//66 69//69 68//68 62//62
f 67//67 71//71 74//74 70//70
f 68//68 72//72 71//71 67//67
f 69//69 73//73 72//72 68//68
f 70//70 74//74 73//73 69//69
f 72//72 73//73 74//74 71//71
o cube4_copy8
#16 vertices, 14 faces
v -0.16995127 -0.11186222 -1.18692755
v -0.16995127 0.11186222 -1.18692755
v 1.20350650 0.11186222 -1.18692755
v 1.20350650 -0.11186222 -1.18692755
v -0.16995127 -0.11186222 -1.41065198
v -0.16995127 0.11186222 -1.41065198
v 1.20350650 0.11186222 -1.41065198
v 1.20350650 -0.11186222 -1.41065198
v 1.30611513 0.17830261 -1.12048715
v 1.30611513 -0.17830261 -1.12048715
v 1.30611513 -0.17830261 -1.47709238
v 1.30611513 0.17830261 -1.47709238
v 1.69514255 0.13012615 -1.16866362
v 1.69514255 -0.13012615 -1.16866362
v 1.69514255 -0.13012615 -1.42891591
v 1.69514255 0.13012615 -1.42891591
vn -0.57735027 -0.57735027 0.57735027
vn -0.57735027 0.57735027 0.57735027
vn -0.38557174 0.65243177 0.65243177
vn -0.38557174 -0.65243177 0.65243177
vn -0.57735027 -0.57735027 -0.57735027
vn -0.57735027 0.57735027 -0.57735027
vn -0.38557174 0.65243177 -0.65243177
vn -0.38557174 -0.65243177 -0.65243177
vn -0.30885458 0.67253582 0.67253581
vn -0.30885458 -0.67253582 0.67253581
vn -0.30885458 -0.67253582 -0.67253581
vn -0.30885458 0.67253582 -0.67253581
vn 0.66384272 0.52882551 0.52882551
vn 0.66384272 -0.52882551 0.52882551
vn 0.66384272 -0.52882551 -0.52882551
vn 0.66384272 0.52882551 -0.52882551
g cube4_copy8_default2
usemtl default2
s 1
f 75//75 78//78 77//77 76//76
f 75//75 79//79 82//82 78//78
f 76//76 80//80 79//79 75//75
f 77//77 81//81 80//80 76//76
f 77//77 83//83 86//86 81//81
f 78//78 84//84 83//83 77//77
f 80//80 81//81 82//82 79//79
f 81//81 86//86 85//85 82//82
f 82//82 85//85 84//84 78//78
f 83//83 87//87 90//90 86//86
f 84//84 88//88 87//87 83//83
f 85//85 89//89 88//88 84//84
f 86//86 90//90 89//89 85//85
f 88//88 89//89 90//90 87//87
